<?xml version="1.0" encoding="UTF-8"?>
<svg version="1.1" xmlns="http://www.w3.org/2000/svg" width="500" height="500">
<path d="M0 0 C0.61375488 0.26941406 1.22750977 0.53882813 1.85986328 0.81640625 C11.19368163 4.98784429 18.86998581 9.51082465 26 17 C26.6084375 17.61230469 27.216875 18.22460938 27.84375 18.85546875 C32.57108986 23.89438329 36.18380161 29.67477515 39.8046875 35.52734375 C41.09592932 37.60892429 42.40653847 39.54064556 43.8828125 41.50390625 C54.61454012 56.10964316 57.77451649 78.0766753 59.0625 95.8125 C59.18709595 97.4663269 59.18709595 97.4663269 59.31420898 99.15356445 C60.24063496 111.78556933 60.91421188 124.40357247 61.13127136 137.06861877 C61.19116642 140.54542708 61.26050552 144.02203627 61.3288269 147.49868774 C61.37449622 150.09634521 61.40339371 152.69385358 61.43188477 155.29174805 C61.46165904 156.90545008 61.49214548 158.51913918 61.5234375 160.1328125 C61.52664505 160.88187363 61.5298526 161.63093475 61.53315735 162.4026947 C61.61606462 166.40798162 61.61606462 166.40798162 63.34228516 169.92919922 C65.13068113 171.18196078 65.13068113 171.18196078 68 172 C68 178.6 68 185.2 68 192 C66.35 192.33 64.7 192.66 63 193 C62.7696278 219.31382204 62.95099525 245.57625401 63.9375 271.875 C64.00284943 273.64751633 64.00284943 273.64751633 64.06951904 275.45584106 C64.19640916 278.8431694 64.32899097 282.23020764 64.46484375 285.6171875 C64.50344009 286.60805862 64.54203644 287.59892975 64.58180237 288.61982727 C64.7861426 293.44681487 65.05152635 298.26821366 65.40844727 303.08642578 C65.47322769 303.98144806 65.53800812 304.87647034 65.60475159 305.7986145 C65.81972211 308.20040095 65.81972211 308.20040095 68 310 C68.22740912 312.77320988 68.32422018 315.41450564 68.3125 318.1875 C68.32861328 318.93064453 68.34472656 319.67378906 68.36132812 320.43945312 C68.36197266 321.17486328 68.36261719 321.91027344 68.36328125 322.66796875 C68.36626221 323.33078857 68.36924316 323.9936084 68.37231445 324.67651367 C68 327 68 327 66.4934082 330.14355469 C64.44197495 334.72039813 64.64044908 339.09451525 64.7421875 344.03515625 C64.74880402 344.99087021 64.75542053 345.94658417 64.76223755 346.93125916 C64.78552038 349.9753423 64.82911935 353.01868086 64.875 356.0625 C64.92179638 360.05333402 64.95998735 364.04417873 64.9921875 368.03515625 C65.0005513 369.00909836 65.0089151 369.98304047 65.01753235 370.98649597 C65.04920633 377.04217863 64.77594945 382.98989323 64.25390625 389.0246582 C63.90183041 394.53701477 63.8314044 400.0441946 63.75390625 405.56640625 C63.72895081 407.26329338 63.72895081 407.26329338 63.70349121 408.99446106 C63.63659953 413.72125909 63.5746258 418.4480558 63.52319336 423.17504883 C63.4835584 426.65984034 63.43206921 430.14429854 63.37890625 433.62890625 C63.3704921 434.69661758 63.36207794 435.76432892 63.35340881 436.86439514 C63.32844582 438.35766579 63.32844582 438.35766579 63.30297852 439.88110352 C63.29267105 440.751548 63.28236359 441.62199249 63.27174377 442.51881409 C62.93392404 445.60331372 62.71727536 447.36598659 61 450 C55.15639627 453.1377105 48.94022108 453.43528047 42.44799805 453.38818359 C41.08505615 453.39606903 41.08505615 453.39606903 39.69458008 453.40411377 C36.71678018 453.41722304 33.73952329 453.40860569 30.76171875 453.3984375 C28.67340493 453.40046136 26.58509181 453.4033754 24.4967804 453.40713501 C20.12840012 453.41154655 15.76020444 453.40516694 11.3918457 453.39111328 C5.82063113 453.37405419 0.24985127 453.38384945 -5.32134724 453.40183067 C-9.63247385 453.41272741 -13.94349929 453.40919472 -18.25462914 453.4014473 C-20.30732463 453.39945988 -22.3600296 453.40185272 -24.412714 453.40888596 C-43.76970072 453.46064848 -43.76970072 453.46064848 -52.78890991 450.67428589 C-59.30735773 448.68644405 -67.3866291 449.56231067 -74 451 C-74.66 451.66 -75.32 452.32 -76 453 C-78.58749386 453.24981655 -81.06397366 453.37563589 -83.65625 453.40625 C-84.42618286 453.42000671 -85.19611572 453.43376343 -85.98937988 453.44793701 C-88.49310976 453.48248207 -90.99604362 453.49487578 -93.5 453.5 C-94.34900879 453.50334351 -95.19801758 453.50668701 -96.07275391 453.51013184 C-107.12589591 453.51275504 -116.65027166 452.9898588 -126.9140625 448.5859375 C-132.68863795 446.12774291 -138.92923151 445.38717547 -145.1015625 444.46972656 C-145.94203125 444.33276367 -146.7825 444.19580078 -147.6484375 444.0546875 C-148.39270996 443.94624512 -149.13698242 443.83780273 -149.90380859 443.72607422 C-152.92042246 442.68118607 -154.0392563 441.55891195 -156 439 C-156.80570294 435.90977333 -157.01595314 432.8151458 -157.2348175 429.63577271 C-157.31007575 428.70492328 -157.385334 427.77407385 -157.4628728 426.81501687 C-158.22925247 416.49008892 -158.27385955 406.17522099 -158.24291992 395.82763672 C-158.24399656 393.69729047 -158.24594087 391.56694451 -158.24867249 389.43659973 C-158.25346961 383.70990249 -158.24592439 377.9832847 -158.23571944 372.25659704 C-158.2268252 366.19760599 -158.22869875 360.13861661 -158.2290802 354.07962036 C-158.22814679 343.88705144 -158.21951642 333.69451247 -158.20581055 323.50195312 C-158.19018173 311.83885433 -158.18480953 300.17578846 -158.1855461 288.51267993 C-158.18623108 275.95756963 -158.17922824 263.40247147 -158.1700995 250.8473649 C-158.16800251 247.29931368 -158.16726305 243.75126452 -158.16686058 240.20321274 C-158.16182018 217.32217588 -158.08346685 194.45015357 -157.5402832 171.57470703 C-157.52013039 170.72486669 -157.49997758 169.87502635 -157.47921407 168.99943328 C-157.24930073 159.5663626 -156.94632403 150.13672623 -156.59294128 140.70748901 C-156.56072521 139.84765447 -156.52850913 138.98781992 -156.4953168 138.10192978 C-155.8781039 122.14280947 -154.83698018 106.25522276 -153.125 90.375 C-153.01229263 89.29171921 -153.01229263 89.29171921 -152.89730835 88.18655396 C-150.06689374 61.50807996 -141.33183408 35.09428621 -121.3125 16.25 C-103.63639725 1.98939917 -82.51563153 -5.83767978 -60.0625 -7.1875 C-59.37058563 -7.23047211 -58.67867126 -7.27344421 -57.96578979 -7.31771851 C-38.30596103 -8.51418106 -18.32867272 -8.06953644 0 0 Z " fill="#D4D2A1" transform="translate(432,47)"/>
<path d="M0 0 C0.598125 0.474375 1.19625 0.94875 1.8125 1.4375 C4.00382924 3.16465744 4.00382924 3.16465744 7 4 C7 10.6 7 17.2 7 24 C5.35 24.33 3.7 24.66 2 25 C1.7696278 51.31382204 1.95099525 77.57625401 2.9375 103.875 C2.98106628 105.05667755 3.02463257 106.2383551 3.06951904 107.45584106 C3.19640916 110.8431694 3.32899097 114.23020764 3.46484375 117.6171875 C3.50344009 118.60805862 3.54203644 119.59892975 3.58180237 120.61982727 C3.7861426 125.44681487 4.05152635 130.26821366 4.40844727 135.08642578 C4.47322769 135.98144806 4.53800812 136.87647034 4.60475159 137.7986145 C4.81972211 140.20040095 4.81972211 140.20040095 7 142 C7.22740912 144.77320988 7.32422018 147.41450564 7.3125 150.1875 C7.32861328 150.93064453 7.34472656 151.67378906 7.36132812 152.43945312 C7.36197266 153.17486328 7.36261719 153.91027344 7.36328125 154.66796875 C7.36626221 155.33078857 7.36924316 155.9936084 7.37231445 156.67651367 C7 159 7 159 5.4934082 162.14355469 C3.44197495 166.72039813 3.64044908 171.09451525 3.7421875 176.03515625 C3.74880402 176.99087021 3.75542053 177.94658417 3.76223755 178.93125916 C3.78552038 181.9753423 3.82911935 185.01868086 3.875 188.0625 C3.92179638 192.05333402 3.95998735 196.04417873 3.9921875 200.03515625 C4.0005513 201.00909836 4.0089151 201.98304047 4.01753235 202.98649597 C4.04920633 209.04217863 3.77594945 214.98989323 3.25390625 221.0246582 C2.90183041 226.53701477 2.8314044 232.0441946 2.75390625 237.56640625 C2.72895081 239.26329338 2.72895081 239.26329338 2.70349121 240.99446106 C2.63659953 245.72125909 2.5746258 250.4480558 2.52319336 255.17504883 C2.4835584 258.65984034 2.43206921 262.14429854 2.37890625 265.62890625 C2.3704921 266.69661758 2.36207794 267.76432892 2.35340881 268.86439514 C2.32844582 270.35766579 2.32844582 270.35766579 2.30297852 271.88110352 C2.29267105 272.751548 2.28236359 273.62199249 2.27174377 274.51881409 C1.93392404 277.60331372 1.71727536 279.36598659 0 282 C-5.72476028 285.05226289 -11.74267127 285.42731472 -18.09985352 285.34057617 C-18.95948196 285.34101425 -19.81911041 285.34145233 -20.70478821 285.34190369 C-23.51306816 285.33983319 -26.32073211 285.31658532 -29.12890625 285.29296875 C-31.08902155 285.28736659 -33.04914107 285.28309942 -35.00926208 285.28010559 C-40.14344075 285.26870562 -45.2773608 285.23928054 -50.41143799 285.20599365 C-56.58478706 285.16976213 -62.75822307 285.15610852 -68.93164825 285.13863373 C-78.28794482 285.10964004 -87.64367504 285.052119 -97 285 C-97.33 269.82 -97.66 254.64 -98 239 C-96.02 239 -94.04 239 -92 239 C-95.13498292 237.14223235 -97.37471432 236.79859524 -101 237 C-101.495 239.97 -101.495 239.97 -102 243 C-105.11369948 243.32210684 -106.50334709 243.40279724 -108.984375 241.390625 C-109.56703125 240.68421875 -110.1496875 239.9778125 -110.75 239.25 C-111.34296875 238.55390625 -111.9359375 237.8578125 -112.546875 237.140625 C-113.99812045 235.0027688 -114.76251435 233.56916294 -115 231 C-114.34 230.34 -113.68 229.68 -113 229 C-113.2475 227.824375 -113.2475 227.824375 -113.5 226.625 C-114.09941955 223.47804739 -113.38335336 222.76670671 -112 220 C-111.84525388 217.43810155 -111.84525388 217.43810155 -113 215 C-114.95890881 213.60699818 -116.9639118 212.27754554 -119 211 C-121.4375 208.875 -121.4375 208.875 -123 206 C-122.73828125 203.80859375 -122.73828125 203.80859375 -122.25 201.3125 C-121.6937429 197.77554445 -121.67883558 196.49305524 -123.6640625 193.4453125 C-125.13700761 191.77458678 -126.61749636 190.11048129 -128.10546875 188.453125 C-130.55137243 185.28605797 -131.13051716 182.89998422 -131.26171875 178.95703125 C-130.8923022 176.19467768 -129.4727299 174.33182234 -128 172 C-128.26513915 169.65793749 -128.60612212 167.32387947 -129 165 C-128.99219273 160.90118447 -128.41535668 157.68237169 -126.25 154.125 C-123.90466411 151.90996055 -122.06431642 150.93631891 -119 150 C-119.66 149.21625 -120.32 148.4325 -121 147.625 C-123 145 -123 145 -123 143 C-123.66 143 -124.32 143 -125 143 C-125.79145054 136.39031847 -126.33548688 131.31955272 -124 125 C-123.96719595 122.44128406 -124.05958166 119.92069687 -124.22265625 117.3671875 C-123.94236069 114.38720312 -122.95252036 113.22752323 -121 111 C-120.54238281 110.43796875 -120.08476562 109.8759375 -119.61328125 109.296875 C-118.40885417 107.86458333 -117.20442708 106.43229167 -116 105 C-114.35 105.33 -112.7 105.66 -111 106 C-111.495 104.2675 -111.495 104.2675 -112 102.5 C-114.38900147 91.45940035 -113.01404497 79.78182781 -112.125 68.625 C-112.04668945 67.62718506 -111.96837891 66.62937012 -111.88769531 65.60131836 C-111.34009485 59.29080003 -110.38285501 53.18127708 -109 47 C-120.32799898 48.26969618 -120.32799898 48.26969618 -131 52 C-132.07121094 52.48919922 -132.07121094 52.48919922 -133.1640625 52.98828125 C-137.8455849 55.32904245 -140.91079076 57.87898613 -144.375 61.8125 C-147.75285859 65.36814062 -149.80699801 66.65347581 -154.75 66.8125 C-159.22738732 66.42370726 -161.98904759 65.51277781 -165 62 C-166.26155717 58.21532848 -166.51582198 55.99762033 -166 52 C-164.05046559 48.6358644 -161.63521997 45.84684376 -159 43 C-158.39800781 42.34386719 -157.79601562 41.68773437 -157.17578125 41.01171875 C-148.70633144 32.71982554 -136.89067479 30.85225288 -125.4375 30.875 C-124.74293701 30.87185791 -124.04837402 30.86871582 -123.33276367 30.86547852 C-118.74810489 30.87752274 -114.36198624 31.32088398 -109.8125 31.9375 C-106.70869533 32.29122089 -106.70869533 32.29122089 -104 32 C-101.62254404 29.34478423 -101.62254404 29.34478423 -100.546875 27.11328125 C-95.20634049 19.817248 -83.43873142 15.91214701 -75 14 C-74.40574219 13.81953125 -73.81148438 13.6390625 -73.19921875 13.453125 C-64.09686652 11.57768475 -54.63764499 12.34723515 -46.234375 16.22265625 C-43.63443251 17.1271817 -42.52190335 17.04188804 -40 16 C-39.2575 15.2575 -38.515 14.515 -37.75 13.75 C-29.20810029 5.20810029 -18.1407452 1.76208619 -6.1875 1.75 C-4.12427878 1.81299912 -2.0611828 1.88875175 0 2 C0 1.34 0 0.68 0 0 Z " fill="#D5D8C8" transform="translate(493,215)"/>
<path d="M0 0 C0.598125 0.474375 1.19625 0.94875 1.8125 1.4375 C4.00382924 3.16465744 4.00382924 3.16465744 7 4 C7 10.6 7 17.2 7 24 C-0.84925461 26.24264417 -0.84925461 26.24264417 -4.48828125 26.0546875 C-5.27291748 26.02761719 -6.05755371 26.00054687 -6.8659668 25.97265625 C-7.67332275 25.94042969 -8.48067871 25.90820312 -9.3125 25.875 C-16.63661522 25.70541123 -22.504704 26.25977814 -29 30 C-28.38101689 33.39294446 -27.09401629 35.48832994 -25.0625 38.25 C-22.14132214 42.47414928 -20.91450105 45.97024423 -20 51 C-19.34 51 -18.68 51 -18 51 C-5.3258229 77.42700757 -5.3258229 77.42700757 -8 89 C-10.52974639 93.17854581 -13.57239868 96.80972261 -18.015625 98.98828125 C-20.13111162 99.9352775 -20.13111162 99.9352775 -21.8515625 101.87890625 C-36.35227906 116.19506824 -62.05047841 118.21557635 -81.32763672 118.32788086 C-89.46280656 118.23251751 -96.66076802 116.66961599 -104 113 C-104 112.34 -104 111.68 -104 111 C-104.8971875 110.62875 -104.8971875 110.62875 -105.8125 110.25 C-109.56537927 108.10549756 -110.71511525 105.77968458 -112.1875 101.75 C-114.50801919 91.06391162 -112.98541254 79.41503838 -112.125 68.625 C-112.04668945 67.62726563 -111.96837891 66.62953125 -111.88769531 65.6015625 C-111.34013272 59.29095602 -110.38287317 53.18135823 -109 47 C-120.32799898 48.26969618 -120.32799898 48.26969618 -131 52 C-132.07121094 52.48919922 -132.07121094 52.48919922 -133.1640625 52.98828125 C-137.8455849 55.32904245 -140.91079076 57.87898613 -144.375 61.8125 C-147.75285859 65.36814062 -149.80699801 66.65347581 -154.75 66.8125 C-159.22738732 66.42370726 -161.98904759 65.51277781 -165 62 C-166.26155717 58.21532848 -166.51582198 55.99762033 -166 52 C-164.05046559 48.6358644 -161.63521997 45.84684376 -159 43 C-158.39800781 42.34386719 -157.79601562 41.68773437 -157.17578125 41.01171875 C-148.70633144 32.71982554 -136.89067479 30.85225288 -125.4375 30.875 C-124.74293701 30.87185791 -124.04837402 30.86871582 -123.33276367 30.86547852 C-118.74810489 30.87752274 -114.36198624 31.32088398 -109.8125 31.9375 C-106.70869533 32.29122089 -106.70869533 32.29122089 -104 32 C-101.62254404 29.34478423 -101.62254404 29.34478423 -100.546875 27.11328125 C-95.20634049 19.817248 -83.43873142 15.91214701 -75 14 C-74.40574219 13.81953125 -73.81148438 13.6390625 -73.19921875 13.453125 C-64.09686652 11.57768475 -54.63764499 12.34723515 -46.234375 16.22265625 C-43.63443251 17.1271817 -42.52190335 17.04188804 -40 16 C-39.2575 15.2575 -38.515 14.515 -37.75 13.75 C-29.20810029 5.20810029 -18.1407452 1.76208619 -6.1875 1.75 C-4.12427878 1.81299912 -2.0611828 1.88875175 0 2 C0 1.34 0 0.68 0 0 Z " fill="#5F2F1F" transform="translate(493,215)"/>
<path d="M0 0 C1.99609375 0.05078125 1.99609375 0.05078125 4.4375 0.3125 C5.64212891 0.43044922 5.64212891 0.43044922 6.87109375 0.55078125 C9 1 9 1 11 3 C11 3.99 11 4.98 11 6 C11.66 6 12.32 6 13 6 C13.44214844 6.48210937 13.88429688 6.96421875 14.33984375 7.4609375 C16.45189197 9.41893043 17.72458981 9.44733841 20.5625 9.625 C24.84 9.92 24.84 9.92 27 11 C27 11.66 27 12.32 27 13 C28.64767247 12.71890887 30.29313145 12.42481474 31.9375 12.125 C32.85402344 11.96257812 33.77054687 11.80015625 34.71484375 11.6328125 C35.46894531 11.42398437 36.22304688 11.21515625 37 11 C37.33 10.34 37.66 9.68 38 9 C39.61416222 8.68758151 41.24293118 8.44868664 42.875 8.25 C45.58179008 7.84393286 45.58179008 7.84393286 48 7 C50.22325679 4.06337328 50.22325679 4.06337328 51 1 C51.86625 1.33 52.7325 1.66 53.625 2 C61.00797249 4.1875474 64.24645691 2.58451436 72 0 C72 14.85 72 29.7 72 45 C72.66 45.33 73.32 45.66 74 46 C70.16915269 47.2769491 66.57197145 47.13119309 62.58129883 47.11352539 C61.29317039 47.11374443 61.29317039 47.11374443 59.97901917 47.1139679 C57.1383309 47.11327079 54.29770807 47.10548783 51.45703125 47.09765625 C49.48833756 47.09579135 47.51964341 47.09436779 45.5509491 47.09336853 C40.36746949 47.08954901 35.18401786 47.07972352 30.00054932 47.06866455 C23.78224516 47.05664057 17.56393165 47.0520455 11.3456192 47.04621124 C1.89706 47.03651149 -7.55143779 47.01735096 -17 47 C-17.33 31.82 -17.66 16.64 -18 1 C-12.39 1 -6.78 1 -1 1 C-0.67 0.67 -0.34 0.34 0 0 Z " fill="#D3D297" transform="translate(413,453)"/>
<path d="M0 0 C0.99 0.66 1.98 1.32 3 2 C3.29296875 4.3828125 3.29296875 4.3828125 3.1875 7.125 C3.14689453 8.49011719 3.14689453 8.49011719 3.10546875 9.8828125 C3.07066406 10.58148438 3.03585937 11.28015625 3 12 C4.32 12 5.64 12 7 12 C7.08164159 14.6881249 7.14079668 17.373723 7.1875 20.0625 C7.21263672 20.81466797 7.23777344 21.56683594 7.26367188 22.34179688 C7.33282151 27.66631856 6.40669334 31.24346434 4 36 C2.5421403 36.05583292 1.08359017 36.09358421 -0.375 36.125 C-1.18710937 36.14820313 -1.99921875 36.17140625 -2.8359375 36.1953125 C-6.45769728 35.97174708 -9.84754252 35.28222663 -13.39404297 34.5390625 C-27.06532187 31.71105203 -40.63517305 30.74377824 -54.57080078 30.41601562 C-65.20491082 30.1166699 -75.52635165 28.80228364 -86 27 C-86 26.34 -86 25.68 -86 25 C-86.92619141 24.96132813 -86.92619141 24.96132813 -87.87109375 24.921875 C-93.98057467 24.51271646 -101.42668149 23.57331851 -106 19 C-106.62447527 14.43105432 -106.93122951 9.9456045 -104.90625 5.71484375 C-103.3163455 3.65557914 -102.26768523 2.30025787 -100 1 C-94.25976827 0.36843416 -89.94845262 1.83601272 -84.6875 3.8125 C-78.38933818 6.042418 -72.22416057 7.74843941 -65.625 8.8125 C-64.93752686 8.92376221 -64.25005371 9.03502441 -63.54174805 9.1496582 C-51.61687035 10.92450405 -39.77483919 11.13178859 -27.75 11.0625 C-26.21484522 11.05747043 -24.67968884 11.05291012 -23.14453125 11.04882812 C-19.4296533 11.03794839 -15.71483741 11.02076577 -12 11 C-11.66226563 10.21753906 -11.32453125 9.43507813 -10.9765625 8.62890625 C-10.30753906 7.11103516 -10.30753906 7.11103516 -9.625 5.5625 C-9.18414062 4.55316406 -8.74328125 3.54382813 -8.2890625 2.50390625 C-6.12238786 -1.7046951 -4.21587984 -1.13108971 0 0 Z " fill="#703520" transform="translate(493,345)"/>
<path d="M0 0 C2.10258955 2.10258955 1.21148888 6.7567317 1.24609375 9.6640625 C1.27789382 11.56486172 1.30980021 13.46565916 1.34179688 15.36645508 C1.35718506 16.38446198 1.37257324 17.40246887 1.38842773 18.45132446 C1.69966203 38.57993787 2.26807232 58.69506103 3 78.8125 C3.04188446 79.99604065 3.08376892 81.1795813 3.12692261 82.39898682 C3.24767983 85.79347844 3.37295991 89.18776953 3.5 92.58203125 C3.53541397 93.57607468 3.57082794 94.5701181 3.60731506 95.59428406 C3.43197727 106.60846421 3.43197727 106.60846421 6 117 C5.01 117 4.02 117 3 117 C2.95101562 116.30132812 2.90203125 115.60265625 2.8515625 114.8828125 C2.73941406 113.51769531 2.73941406 113.51769531 2.625 112.125 C2.52058594 110.76761719 2.52058594 110.76761719 2.4140625 109.3828125 C2.20431868 106.82058097 2.20431868 106.82058097 0 105 C0.495 103.515 0.495 103.515 1 102 C1.09170351 100.60126195 1.13066353 99.19861429 1.1328125 97.796875 C1.13410156 96.98089844 1.13539063 96.16492188 1.13671875 95.32421875 C1.13285156 94.47472656 1.12898438 93.62523437 1.125 92.75 C1.12886719 91.91597656 1.13273437 91.08195312 1.13671875 90.22265625 C1.55120041 81.42285316 1.55120041 81.42285316 -2 74 C-2.40047444 71.67724823 -2.7397104 69.34260643 -3 67 C-7.58940745 67.45733606 -9.32460046 68.94823528 -12.25 72.4375 C-12.93578125 73.24058594 -13.6215625 74.04367187 -14.328125 74.87109375 C-16.02841544 76.88957593 -16.02841544 76.88957593 -17 79 C-18.65532623 80.01866229 -20.32260138 81.01810813 -22 82 C-22.66 82.66 -23.32 83.32 -24 84 C-25.99117408 84.69258229 -27.9921136 85.35747635 -30 86 C-30.61617188 86.33773437 -31.23234375 86.67546875 -31.8671875 87.0234375 C-34.38533894 88.17643724 -36.49608649 88.40758578 -39.25 88.625 C-40.58804688 88.73714844 -40.58804688 88.73714844 -41.953125 88.8515625 C-42.62859375 88.90054688 -43.3040625 88.94953125 -44 89 C-44.495 90.485 -44.495 90.485 -45 92 C-55.65913683 93.93488383 -66.26158782 94.22228314 -77.0625 94.25 C-78.08731979 94.25749268 -78.08731979 94.25749268 -79.13284302 94.26513672 C-81.12107841 94.27704963 -83.10939402 94.27155753 -85.09765625 94.265625 C-86.83801147 94.26224121 -86.83801147 94.26224121 -88.61352539 94.25878906 C-94.66794995 93.79611946 -99.68579589 91.85152416 -105 89 C-105 88.34 -105 87.68 -105 87 C-106.32 87 -107.64 87 -109 87 C-109.495 84.525 -109.495 84.525 -110 82 C-107.96166576 83.2739589 -105.96147874 84.61061923 -104 86 C-104 86.66 -104 87.32 -104 88 C-102.25014646 88.47970123 -100.50011109 88.95873924 -98.75 89.4375 C-97.77546875 89.70433594 -96.8009375 89.97117187 -95.796875 90.24609375 C-94.87390625 90.49488281 -93.9509375 90.74367188 -93 91 C-92.36755371 91.17635986 -91.73510742 91.35271973 -91.08349609 91.53442383 C-78.94080942 94.24781772 -64.93858651 91.88650305 -52.93798828 89.39697266 C-51.23461726 89.04805841 -49.52200342 88.74492348 -47.80859375 88.44921875 C-37.53154457 86.39380891 -25.04945489 80.99491119 -18 73 C-13.34090909 68.11363636 -13.34090909 68.11363636 -10 67 C-6.21783229 55.65349687 -10.48041251 44.44218135 -15 34 C-15.56074219 32.88496094 -16.12148438 31.76992188 -16.69921875 30.62109375 C-18 28 -18 28 -18 26 C-18.66 26 -19.32 26 -20 26 C-20.45439453 24.80503906 -20.45439453 24.80503906 -20.91796875 23.5859375 C-23.57972096 16.56362279 -23.57972096 16.56362279 -27.875 10.5 C-30 8 -30 8 -29.875 5.984375 C-28.71788043 3.36019312 -27.74245367 2.89117357 -25.125 1.75 C-17.19371367 -1.20252265 -8.32564721 -0.50837285 0 0 Z " fill="#D2D09D" transform="translate(493,240)"/>
<path d="M0 0 C0.66 0 1.32 0 2 0 C2 0.66 2 1.32 2 2 C1.34 2.33 0.68 2.66 0 3 C-0.45375 3.99 -0.9075 4.98 -1.375 6 C-3 9 -3 9 -5.1015625 9.6875 C-5.72804688 9.790625 -6.35453125 9.89375 -7 10 C-7.04898438 10.90363281 -7.09796875 11.80726563 -7.1484375 12.73828125 C-7.22320312 13.91777344 -7.29796875 15.09726563 -7.375 16.3125 C-7.44460938 17.48425781 -7.51421875 18.65601563 -7.5859375 19.86328125 C-8 23 -8 23 -10 26 C-10 24.68 -10 23.36 -10 22 C-21.32799898 23.26969618 -21.32799898 23.26969618 -32 27 C-33.07121094 27.48919922 -33.07121094 27.48919922 -34.1640625 27.98828125 C-38.8455849 30.32904245 -41.91079076 32.87898613 -45.375 36.8125 C-48.75285859 40.36814062 -50.80699801 41.65347581 -55.75 41.8125 C-60.22738732 41.42370726 -62.98904759 40.51277781 -66 37 C-67.26155717 33.21532848 -67.51582198 30.99762033 -67 27 C-65.05046559 23.6358644 -62.63521997 20.84684376 -60 18 C-59.39800781 17.34386719 -58.79601562 16.68773437 -58.17578125 16.01171875 C-49.70633144 7.71982554 -37.89067479 5.85225288 -26.4375 5.875 C-25.74293701 5.87185791 -25.04837402 5.86871582 -24.33276367 5.86547852 C-19.74810489 5.87752274 -15.36198624 6.32088398 -10.8125 6.9375 C-6.6338547 7.45638556 -6.6338547 7.45638556 -3.15625 5.5078125 C-1.61256193 3.36558535 -1.61256193 3.36558535 0 0 Z " fill="#64301E" transform="translate(394,240)"/>
<path d="M0 0 C1.65 0 3.3 0 5 0 C5 15.18 5 30.36 5 46 C6.485 46.495 6.485 46.495 8 47 C-0.25 47 -8.5 47 -17 47 C-17.33 31.82 -17.66 16.64 -18 1 C-12.39 1 -6.78 1 -1 1 C-0.67 0.67 -0.34 0.34 0 0 Z " fill="#7A3A1F" transform="translate(413,453)"/>
<path d="M0 0 C0 14.85 0 29.7 0 45 C0.66 45.33 1.32 45.66 2 46 C-5.28010989 48.4267033 -13.32609038 47 -21 47 C-21 31.82 -21 16.64 -21 1 C-19.02 1.66 -17.04 2.32 -15 3 C-9.06254021 3.63164466 -5.44914604 0 0 0 Z " fill="#743820" transform="translate(485,453)"/>
<path d="M0 0 C0.05074705 6.74435205 0.0857534 13.48865477 0.10986328 20.2331543 C0.11991528 22.52711833 0.1335589 24.82106957 0.15087891 27.11499023 C0.17516209 30.41393188 0.18649123 33.71270397 0.1953125 37.01171875 C0.20563507 38.03585373 0.21595764 39.05998871 0.22659302 40.11515808 C0.22674408 41.07577652 0.22689514 42.03639496 0.22705078 43.02612305 C0.231492 43.86773483 0.23593323 44.70934662 0.24050903 45.57646179 C-0.03715692 48.37441922 -0.75818972 50.48282576 -2 53 C-4 54 -4 54 -10 54 C-10 39.15 -10 24.3 -10 9 C-10.99 9.33 -11.98 9.66 -13 10 C-11.69139043 6.07417129 -10.25150787 3.6012063 -7 1 C-4.55509884 0.30145681 -2.53137274 0 0 0 Z " fill="#D2CC94" transform="translate(495,444)"/>
<path d="M0 0 C-0.00523682 0.75095947 -0.01047363 1.50191895 -0.01586914 2.27563477 C-0.03675961 5.70458121 -0.04969845 9.13351421 -0.0625 12.5625 C-0.07087891 13.74392578 -0.07925781 14.92535156 -0.08789062 16.14257812 C-0.10392999 21.86863072 -0.0510705 27.36394482 1 33 C-4.70559087 33.34233545 -9.12409464 33.41313375 -14 30 C-14.875 27.8125 -14.875 27.8125 -15 26 C-15.66 26 -16.32 26 -17 26 C-18.05336511 22.83990467 -18.20032888 20.4446864 -18.25 17.125 C-18.28867187 15.58199219 -18.28867187 15.58199219 -18.328125 14.0078125 C-17.95578391 10.59468586 -17.06712665 8.71937535 -15 6 C-14.34 6 -13.68 6 -13 6 C-13 5.34 -13 4.68 -13 4 C-4.13043478 0 -4.13043478 0 0 0 Z " fill="#D3AB71" transform="translate(381,286)"/>
<path d="M0 0 C3.47060168 2.06759249 5.77725393 4.10944433 7 8 C7.4540225 12.99424753 7.19207216 16.06311101 4 20 C0.67276253 22.79790424 -1.27649031 23.92515417 -5.625 24.375 C-10.71910112 23.80898876 -10.71910112 23.80898876 -13 22 C-15.59976313 18.31700224 -16.8338808 15.93026752 -17.625 11.5 C-16.78196355 6.77899587 -14.48315442 4.19439551 -11 1 C-7.53749757 -0.73125121 -3.78591771 -0.47815224 0 0 Z " fill="#CFC8B8" transform="translate(416,254)"/>
<path d="M0 0 C2.19523797 1.22701309 3.42547055 2.18656511 4.859375 4.26171875 C5.98631058 9.34064761 5.83613499 14.38685791 3.046875 18.88671875 C0.0337186 22.1581457 -2.66946221 22.49851366 -6.953125 22.76171875 C-9.94768409 22.73102781 -11.61738209 22.60814873 -14.12890625 20.9453125 C-16.96769366 17.91682092 -18.04930496 15.840079 -18.703125 11.69921875 C-17.95154178 7.10621021 -16.56661819 3.90709551 -13.515625 0.38671875 C-9.06957968 -1.71930272 -4.62255445 -1.59427517 0 0 Z " fill="#D0CCBC" transform="translate(446.140625,249.73828125)"/>
<path d="M0 0 C2.475 0.99 2.475 0.99 5 2 C5.8125 4.125 5.8125 4.125 6 6 C6.66 6 7.32 6 8 6 C8.66322266 6.72316406 8.66322266 6.72316406 9.33984375 7.4609375 C11.45189197 9.41893043 12.72458981 9.44733841 15.5625 9.625 C19.84 9.92 19.84 9.92 22 11 C22 11.66 22 12.32 22 13 C23.64767247 12.71890887 25.29313145 12.42481474 26.9375 12.125 C28.31228516 11.88136719 28.31228516 11.88136719 29.71484375 11.6328125 C30.46894531 11.42398437 31.22304688 11.21515625 32 11 C32.33 10.34 32.66 9.68 33 9 C35.21484375 8.54296875 35.21484375 8.54296875 37.9375 8.1875 C40.63129019 7.77190677 40.63129019 7.77190677 43 7 C44.75568004 4.54251602 44.75568004 4.54251602 45 2 C45.33 2 45.66 2 46 2 C46 12.89 46 23.78 46 35 C45.67 35 45.34 35 45 35 C44.505 24.605 44.505 24.605 44 14 C39.58917224 15.46586269 39.58917224 15.46586269 35.25 17.125 C30.868583 18.30461227 26.5132474 18.5519799 22 18 C21.34 17.34 20.68 16.68 20 16 C18.9275 15.896875 17.855 15.79375 16.75 15.6875 C12.02616002 14.82146267 10.42392373 13.25690306 7 10 C4.07462081 12.92537919 4.57744333 16.13384708 4.4375 20.0625 C4.11993243 27.88006757 4.11993243 27.88006757 3 29 C2.76298761 31.85877909 2.57780818 34.69883297 2.4375 37.5625 C2.39431641 38.36880859 2.35113281 39.17511719 2.30664062 40.00585938 C2.20024738 42.00368805 2.09959112 44.0018207 2 46 C1.34 46 0.68 46 0 46 C0 30.82 0 15.64 0 0 Z " fill="#CDC778" transform="translate(418,453)"/>
<path d="M0 0 C0.66 1.32 1.32 2.64 2 4 C3.32 4 4.64 4 6 4 C6 4.66 6 5.32 6 6 C6.99 6 7.98 6 9 6 C9 6.66 9 7.32 9 8 C11.97 8 14.94 8 18 8 C18 8.66 18 9.32 18 10 C19.19206055 9.99214478 19.19206055 9.99214478 20.40820312 9.98413086 C24.10546598 9.96298988 27.80269448 9.94901668 31.5 9.9375 C32.16150055 9.93489166 32.8230011 9.93228333 33.50454712 9.92959595 C42.50821282 9.90036995 51.37165304 10.12222734 60.32421875 11.07421875 C61.20722656 11.04972656 62.09023438 11.02523438 63 11 C63.66 10.01 64.32 9.02 65 8 C65.66 8 66.32 8 67 8 C67.495 8.99 67.495 8.99 68 10 C69.97888961 10.72693904 71.97954558 11.39816251 74 12 C74 12.66 74 13.32 74 14 C75.2375 13.835 76.475 13.67 77.75 13.5 C80.57820832 13.12290556 83.11564062 13 86 13 C86 14.32 86 15.64 86 17 C84.5421403 17.05583292 83.08359017 17.09358421 81.625 17.125 C80.40683594 17.15980469 80.40683594 17.15980469 79.1640625 17.1953125 C75.54230272 16.97174708 72.15245748 16.28222663 68.60595703 15.5390625 C54.93467813 12.71105203 41.36482695 11.74377824 27.42919922 11.41601562 C16.79508918 11.1166699 6.47364835 9.80228364 -4 8 C-4 7.34 -4 6.68 -4 6 C-4.68707031 5.95101563 -5.37414062 5.90203125 -6.08203125 5.8515625 C-6.98308594 5.77679688 -7.88414062 5.70203125 -8.8125 5.625 C-9.70582031 5.55539062 -10.59914063 5.48578125 -11.51953125 5.4140625 C-14 5 -14 5 -17 3 C-15.68 3 -14.36 3 -13 3 C-12.34 2.34 -11.68 1.68 -11 1 C-11 1.66 -11 2.32 -11 3 C-10.34 3 -9.68 3 -9 3 C-9 3.66 -9 4.32 -9 5 C-7.02 4.34 -5.04 3.68 -3 3 C-3 3.66 -3 4.32 -3 5 C-2.34 4.67 -1.68 4.34 -1 4 C-0.34786708 1.97536745 -0.34786708 1.97536745 0 0 Z " fill="#92633A" transform="translate(411,364)"/>
<path d="M0 0 C0.33 0 0.66 0 1 0 C1.19875508 3.3535976 1.38195217 6.70787681 1.5625 10.0625 C1.61857422 11.00544922 1.67464844 11.94839844 1.73242188 12.91992188 C1.78076172 13.84482422 1.82910156 14.76972656 1.87890625 15.72265625 C1.94960327 16.98734741 1.94960327 16.98734741 2.02172852 18.27758789 C2 21 2 21 1.52514648 24.24951172 C0.91342645 28.61829049 0.78799218 32.87981912 0.71875 37.28515625 C0.70065781 38.24224487 0.68256561 39.1993335 0.66392517 40.1854248 C0.60403463 43.47771388 0.55169583 46.77007256 0.5 50.0625 C0.48043243 51.2173288 0.46086487 52.37215759 0.44070435 53.5619812 C-0.35244448 100.70301966 -0.61170824 147.854324 -1 195 C-1.33 195 -1.66 195 -2 195 C-2.02366937 177.35852642 -2.04114223 159.71705799 -2.05181217 142.07557201 C-2.05690455 133.87890772 -2.06383737 125.68225357 -2.07543945 117.4855957 C-2.16295113 54.3065537 -2.16295113 54.3065537 -1.55859375 28.61328125 C-1.53906206 27.75534658 -1.51953037 26.89741192 -1.49940681 26.01347923 C-1.29286966 17.31181295 -0.96462834 8.65755597 0 0 Z " fill="#D8D6BA" transform="translate(276,188)"/>
<path d="M0 0 C-0.33 3.3 -0.66 6.6 -1 10 C-3 7 -3 7 -3 5 C-7.7897321 4.76571687 -7.7897321 4.76571687 -12 7 C-13.75912409 7.3728128 -15.53297282 7.67906244 -17.3125 7.9375 C-23.94322399 9.06743843 -27.955912 10.5492727 -32 16 C-33.66392045 16.67349161 -35.33032028 17.3409159 -37 18 C-37.33 18.99 -37.66 19.98 -38 21 C-42.33289419 23.16644709 -47.81360732 22.28561305 -52.375 21.1875 C-55.02792075 19.98736918 -56.2628451 19.2960656 -58 17 C-58.29296875 14.30078125 -58.29296875 14.30078125 -58.1875 11.3125 C-58.16042969 10.31863281 -58.13335937 9.32476562 -58.10546875 8.30078125 C-58.07066406 7.54152344 -58.03585937 6.78226562 -58 6 C-57.67 6 -57.34 6 -57 6 C-56.85304688 6.92232422 -56.85304688 6.92232422 -56.703125 7.86328125 C-56.55359375 8.67152344 -56.4040625 9.47976563 -56.25 10.3125 C-56.11078125 11.11300781 -55.9715625 11.91351563 -55.828125 12.73828125 C-54.76472783 15.64255938 -53.68110282 16.49596671 -51 18 C-47.15468545 19.01354137 -43.85286195 18.98250552 -40 18 C-37.21412124 15.75833942 -34.98261535 13.28533615 -32.60546875 10.6171875 C-23.80226912 1.77439327 -11.94347002 -0.33176306 0 0 Z " fill="#CDBC7A" transform="translate(384,262)"/>
<path d="M0 0 C3.29797384 4.94696076 2.99749112 10.2478012 2 16 C-0.481876 20.19331182 -3.5865733 23.81667257 -8.015625 25.98828125 C-10.13111162 26.9352775 -10.13111162 26.9352775 -11.8515625 28.87890625 C-26.43713272 43.27884194 -52.17365226 45.18866563 -71.53417969 45.25976562 C-77.73615985 45.19988761 -83.26659667 44.53476779 -89 42 C-85.98968256 41.06576355 -85.13349732 40.95550089 -82 42 C-77.33702259 42.23656818 -72.6683321 42.18517976 -68 42.1875 C-66.05480469 42.20586914 -66.05480469 42.20586914 -64.0703125 42.22460938 C-62.83023437 42.22654297 -61.59015625 42.22847656 -60.3125 42.23046875 C-59.17425781 42.23457764 -58.03601563 42.23868652 -56.86328125 42.24291992 C-53.79971794 42.21486158 -53.79971794 42.21486158 -51 40 C-48.46852714 39.63795053 -45.98020683 39.35650149 -43.4375 39.125 C-28.35458314 37.44444278 -14.59790161 29.94214899 -4 19 C-2.91138672 17.88625 -2.91138672 17.88625 -1.80078125 16.75 C0.53162492 13.18814763 0.40761823 10.90378761 0.25 6.6875 C0.21390625 5.43324219 0.1778125 4.17898438 0.140625 2.88671875 C0.09421875 1.93410156 0.0478125 0.98148437 0 0 Z " fill="#9D784A" transform="translate(483,288)"/>
<path d="M0 0 C0 15.84 0 31.68 0 48 C-0.33 48 -0.66 48 -1 48 C-1.33 33.48 -1.66 18.96 -2 4 C-3.32 4.33 -4.64 4.66 -6 5 C-7.06003245 10.27375575 -7.21555735 15.41656517 -7.31640625 20.7734375 C-7.33718735 21.6971817 -7.35796844 22.6209259 -7.37937927 23.57266235 C-7.44446119 26.50670344 -7.50356643 29.44082962 -7.5625 32.375 C-7.6057246 34.37110235 -7.64934012 36.36719627 -7.69335938 38.36328125 C-7.8000999 43.24210156 -7.90148248 48.12100699 -8 53 C-6.68 53.33 -5.36 53.66 -4 54 C-5.98 54 -7.96 54 -10 54 C-10 39.15 -10 24.3 -10 9 C-10.99 9.33 -11.98 9.66 -13 10 C-11.69139043 6.07417129 -10.25150787 3.6012063 -7 1 C-4.55509884 0.30145681 -2.53137274 0 0 0 Z " fill="#AF8C5B" transform="translate(495,444)"/>
<path d="M0 0 C2.91517292 1.07401108 4.77810176 1.77810176 7 4 C7.265625 6.4609375 7.265625 6.4609375 7.25 9.375 C7.25515625 10.33148438 7.2603125 11.28796875 7.265625 12.2734375 C6.99504736 15.05083739 6.55924687 16.69825462 5 19 C2.375 19.75 2.375 19.75 0 20 C0.33 18.68 0.66 17.36 1 16 C-0.093125 16.061875 -1.18625 16.12375 -2.3125 16.1875 C-6 16 -6 16 -7.875 14.875 C-9.40430823 12.32615294 -9.67470941 9.92761527 -10 7 C-9.34 7 -8.68 7 -8 7 C-8 6.34 -8 5.68 -8 5 C-7.113125 5.04125 -6.22625 5.0825 -5.3125 5.125 C-2.02722987 5.00102754 0.05449295 4.38612096 3 3 C1.68 2.67 0.36 2.34 -1 2 C-0.67 1.34 -0.34 0.68 0 0 Z " fill="#CEC8BA" transform="translate(444,250)"/>
<path d="M0 0 C0.33 0 0.66 0 1 0 C1 20.79 1 41.58 1 63 C1.66 63 2.32 63 3 63 C3.125 69.75 3.125 69.75 2 72 C2.66 72 3.32 72 4 72 C4.33 73.32 4.66 74.64 5 76 C4.34 76 3.68 76 3 76 C3 77.32 3 78.64 3 80 C3.66 80 4.32 80 5 80 C4.34 82.97 3.68 85.94 3 89 C3.66 89 4.32 89 5 89 C5.25 95.625 5.25 95.625 3 99 C3.66 99 4.32 99 5 99 C5 100.32 5 101.64 5 103 C6.9490625 103.185625 6.9490625 103.185625 8.9375 103.375 C11.15234375 103.5859375 11.15234375 103.5859375 13 104 C13.33 104.66 13.66 105.32 14 106 C12.7625 105.9175 11.525 105.835 10.25 105.75 C9.55390625 105.70359375 8.8578125 105.6571875 8.140625 105.609375 C5.0697028 104.73517087 3.97892615 103.51702902 2 101 C1.33966399 98.16861855 0.97514538 95.70664197 0.7578125 92.83203125 C0.68233185 91.94216019 0.6068512 91.05228912 0.52908325 90.13545227 C-0.62986234 73.96656183 -0.21676841 57.67190373 -0.1373291 41.4730835 C-0.11658438 36.78611064 -0.10767523 32.09911525 -0.09765625 27.41210938 C-0.07643689 18.27468155 -0.04246595 9.13735213 0 0 Z " fill="#D3A87B" transform="translate(274,385)"/>
<path d="M0 0 C1.640625 1.21484375 1.640625 1.21484375 3 3 C3.109375 5.19140625 3.109375 5.19140625 2.75 7.5625 C2.64171875 8.34753906 2.5334375 9.13257813 2.421875 9.94140625 C2 12 2 12 1 14 C3.64 14.33 6.28 14.66 9 15 C9.66 13.68 10.32 12.36 11 11 C11.66 11.66 12.32 12.32 13 13 C12.875 15.5 12.875 15.5 12 18 C8.70801218 20.65891324 5.0645037 20.29032169 1 20 C-2.46574965 19.10880723 -3.12987032 17.81601705 -5.25 14.8125 C-7.19885455 11.13729792 -7.48096819 8.16839097 -7 4 C-4.83989616 0.75984424 -3.8842653 0 0 0 Z " fill="#D1CCBC" transform="translate(406,258)"/>
<path d="M0 0 C2.475 0.99 2.475 0.99 5 2 C5.8125 4.125 5.8125 4.125 6 6 C6.66 6 7.32 6 8 6 C9.625 8 9.625 8 11 10 C10.195625 10.144375 9.39125 10.28875 8.5625 10.4375 C6.07896294 10.74135249 6.07896294 10.74135249 5 12 C4.78916247 14.67060873 4.62408803 17.3252135 4.5 20 C4.13513514 27.86486486 4.13513514 27.86486486 3 29 C2.76298761 31.85877909 2.57780818 34.69883297 2.4375 37.5625 C2.39431641 38.36880859 2.35113281 39.17511719 2.30664062 40.00585938 C2.20024738 42.00368805 2.09959112 44.0018207 2 46 C1.34 46 0.68 46 0 46 C0 30.82 0 15.64 0 0 Z " fill="#CAB870" transform="translate(418,453)"/>
<path d="M0 0 C1.47633107 0.19015355 2.95593467 0.35620856 4.4375 0.5 C7.67411117 0.83647938 10.82142634 1.28225756 14 2 C14 2.33 14 2.66 14 3 C12.10424749 3.02721176 10.20838021 3.04649136 8.3125 3.0625 C6.72888672 3.07990234 6.72888672 3.07990234 5.11328125 3.09765625 C2.27589738 3.00865425 -0.2438919 2.64939838 -3 2 C-2.83701416 2.52110352 -2.67402832 3.04220703 -2.50610352 3.57910156 C-1.85917324 6.67363154 -1.88847603 9.57253596 -1.90234375 12.734375 C-1.90556641 14.02988281 -1.90878906 15.32539063 -1.91210938 16.66015625 C-1.92046402 18.02343817 -1.92892896 19.38671942 -1.9375 20.75 C-1.94251832 22.12890465 -1.94708065 23.50781104 -1.95117188 24.88671875 C-1.96295907 28.25785659 -1.97941365 31.62890628 -2 35 C-2.33 35 -2.66 35 -3 35 C-3.33772739 32.29215006 -3.67030687 29.58383004 -4 26.875 C-4.09539062 26.11445313 -4.19078125 25.35390625 -4.2890625 24.5703125 C-4.79830188 20.35090048 -5.10888068 16.25995656 -5 12 C-5.5775 12.2475 -6.155 12.495 -6.75 12.75 C-7.86375 12.87375 -7.86375 12.87375 -9 13 C-11.25 11.1875 -11.25 11.1875 -13 9 C-13 8.34 -13 7.68 -13 7 C-13.99 6.67 -14.98 6.34 -16 6 C-16.33 5.01 -16.66 4.02 -17 3 C-13.58978257 3.78697325 -10.31114834 4.87119943 -7 6 C-6.87625 5.030625 -6.7525 4.06125 -6.625 3.0625 C-6.41875 2.051875 -6.2125 1.04125 -6 0 C-3.45186193 -1.27406904 -2.68966917 -0.7419777 0 0 Z " fill="#BDA97A" transform="translate(398,452)"/>
<path d="M0 0 C8.415 1.98 8.415 1.98 17 4 C17 4.66 17 5.32 17 6 C17.92941406 6.06058594 18.85882813 6.12117188 19.81640625 6.18359375 C21.67072266 6.30927734 21.67072266 6.30927734 23.5625 6.4375 C24.78066406 6.51871094 25.99882812 6.59992188 27.25390625 6.68359375 C29.61583178 6.88308902 31.97397986 7.14808967 34.31738281 7.50439453 C37.80129232 7.97325798 41.15595243 8.17044875 44.66796875 8.24609375 C45.89064453 8.27896484 47.11332031 8.31183594 48.37304688 8.34570312 C50.92763707 8.40718072 53.48233222 8.46443461 56.03710938 8.51757812 C57.25591797 8.55173828 58.47472656 8.58589844 59.73046875 8.62109375 C61.39178833 8.65867798 61.39178833 8.65867798 63.08666992 8.69702148 C65.90569358 8.99019238 67.60072237 9.54338678 70 11 C24.76542753 11.27696375 24.76542753 11.27696375 12 7 C10.783125 6.608125 9.56625 6.21625 8.3125 5.8125 C7.1678125 5.4103125 7.1678125 5.4103125 6 5 C6 4.34 6 3.68 6 3 C4.35 3 2.7 3 1 3 C0.67 2.01 0.34 1.02 0 0 Z " fill="#CDC2A0" transform="translate(390,366)"/>
<path d="M0 0 C2.03833424 1.2739589 4.03852126 2.61061923 6 4 C6 4.66 6 5.32 6 6 C7.74985354 6.47970123 9.49988891 6.95873924 11.25 7.4375 C12.71179688 7.83775391 12.71179688 7.83775391 14.203125 8.24609375 C15.58757812 8.61927734 15.58757812 8.61927734 17 9 C17.63244629 9.17635986 18.26489258 9.35271973 18.91650391 9.53442383 C36.99334112 13.57385769 59.98185895 8.14543982 77 2 C76.67 2.66 76.34 3.32 76 4 C75.01 4 74.02 4 73 4 C73 4.66 73 5.32 73 6 C70.69 6.33 68.38 6.66 66 7 C65.67 7.99 65.34 8.98 65 10 C54.34086317 11.93488383 43.73841218 12.22228314 32.9375 12.25 C31.91268021 12.25749268 31.91268021 12.25749268 30.86715698 12.26513672 C28.87892159 12.27704963 26.89060598 12.27155753 24.90234375 12.265625 C23.16198853 12.26224121 23.16198853 12.26224121 21.38647461 12.25878906 C15.33205005 11.79611946 10.31420411 9.85152416 5 7 C5 6.34 5 5.68 5 5 C3.68 5 2.36 5 1 5 C0.67 3.35 0.34 1.7 0 0 Z " fill="#CBBF97" transform="translate(383,322)"/>
<path d="M0 0 C0.67764404 -0.00942627 1.35528809 -0.01885254 2.0534668 -0.02856445 C6.34042927 -0.00068263 9.8274006 0.6881881 13.8125 2.25 C12.884375 2.683125 12.884375 2.683125 11.9375 3.125 C9.67924235 4.18720042 9.67924235 4.18720042 7.8125 6.25 C6.8225 6.25 5.8325 6.25 4.8125 6.25 C5.1425 5.26 5.4725 4.27 5.8125 3.25 C-2.73275684 2.70712486 -13.40694228 3.35972114 -21.1875 7.25 C-22.21895371 8.55915279 -23.22292166 9.89082143 -24.1875 11.25 C-26.4975 10.92 -28.8075 10.59 -31.1875 10.25 C-23.68803659 1.73239751 -10.648489 0.11249682 0 0 Z " fill="#5F4234" transform="translate(430.1875,227.75)"/>
<path d="M0 0 C1.65 0 3.3 0 5 0 C5 15.18 5 30.36 5 46 C5.99 46.33 6.98 46.66 8 47 C6.02 47 4.04 47 2 47 C1.8031879 44.95920995 1.61797169 42.91729993 1.4375 40.875 C1.33308594 39.73804688 1.22867187 38.60109375 1.12109375 37.4296875 C1.00274263 34.07767833 1.44937254 31.29634113 2 28 C2.12744355 26.09179558 2.22061373 24.18102522 2.28125 22.26953125 C2.31863281 21.21958984 2.35601562 20.16964844 2.39453125 19.08789062 C2.46522071 16.89259023 2.53552921 14.69727754 2.60546875 12.50195312 C2.64285156 11.45587891 2.68023437 10.40980469 2.71875 9.33203125 C2.74904297 8.38046143 2.77933594 7.4288916 2.81054688 6.44848633 C3 4 3 4 4 1 C2.68 0.67 1.36 0.34 0 0 Z " fill="#8C5825" transform="translate(413,453)"/>
<path d="M0 0 C0 0.66 0 1.32 0 2 C-1.31355469 2.08636719 -2.62710937 2.17273438 -3.98046875 2.26171875 C-5.71624262 2.40245717 -7.45191508 2.54445033 -9.1875 2.6875 C-10.05181641 2.74099609 -10.91613281 2.79449219 -11.80664062 2.84960938 C-16.04547282 3.22314631 -19.02028534 3.48903534 -22.11328125 6.58203125 C-23.04720703 7.77892578 -23.04720703 7.77892578 -24 9 C-24.99 8.67 -25.98 8.34 -27 8 C-27.33 8.66 -27.66 9.32 -28 10 C-28.66 9.34 -29.32 8.68 -30 8 C-29.8671875 6.015625 -29.8671875 6.015625 -29 4 C-21.16920831 -2.12844567 -9.29358658 -0.34350012 0 0 Z " fill="#C5AF66" transform="translate(493,240)"/>
<path d="M0 0 C0.33 0 0.66 0 1 0 C1 13.86 1 27.72 1 42 C1.66 42.33 2.32 42.66 3 43 C0.24921116 43.91692961 -1.35948913 44.10886083 -4.1875 44.0625 C-5.445625 44.041875 -6.70375 44.02125 -8 44 C-7.67 43.01 -7.34 42.02 -7 41 C-6.33484375 40.71382813 -5.6696875 40.42765625 -4.984375 40.1328125 C-4.32953125 39.75898438 -3.6746875 39.38515625 -3 39 C-2.29823412 36.58320293 -2.29823412 36.58320293 -2.25 33.875 C-2.19328125 32.96492188 -2.1365625 32.05484375 -2.078125 31.1171875 C-2.05234375 30.41851562 -2.0265625 29.71984375 -2 29 C-1.34 29 -0.68 29 0 29 C0 19.43 0 9.86 0 0 Z " fill="#895021" transform="translate(484,456)"/>
<path d="M0 0 C0.66 0 1.32 0 2 0 C2.66 0.99 3.32 1.98 4 3 C7.56769552 3.73606499 7.56769552 3.73606499 11 4 C11 4.33 11 4.66 11 5 C4.53354512 7.22501673 -1.19796559 7.13592526 -7.97265625 6.921875 C-13.08758652 6.82335307 -17.15313904 7.3322629 -22 9 C-21 6 -21 6 -18.9375 4.9375 C-15.32448861 3.78441126 -11.6936719 2.8541148 -8 2 C-7.071875 1.773125 -6.14375 1.54625 -5.1875 1.3125 C-3 1 -3 1 0 2 C0 1.34 0 0.68 0 0 Z " fill="#925B22" transform="translate(489,234)"/>
<path d="M0 0 C0.66 0.66 1.32 1.32 2 2 C0.7934375 3.051875 0.7934375 3.051875 -0.4375 4.125 C-3.27886014 7.31286747 -3.82132901 8.80123174 -4 13 C-3.69779572 14.34073169 -3.37004295 15.67638484 -3 17 C-1.89591797 17.09087891 -1.89591797 17.09087891 -0.76953125 17.18359375 C0.20628906 17.26738281 1.18210937 17.35117187 2.1875 17.4375 C3.63189453 17.55931641 3.63189453 17.55931641 5.10546875 17.68359375 C7.78649602 17.97666151 10.3662986 18.42703754 13 19 C12.34 19.99 11.68 20.98 11 22 C5.92452424 22.90721064 1.3503046 22.78317667 -3.125 20.1875 C-5.49531779 17.42212924 -5.94503353 15.40046996 -6.4375 11.8125 C-5.84252274 6.62769816 -3.35943673 3.84935459 0 0 Z " fill="#8E5C26" transform="translate(333,259)"/>
<path d="M0 0 C8.02935748 0.84519552 15.98699023 1.9315987 24 3 C24.33 17.85 24.66 32.7 25 48 C24.67 48 24.34 48 24 48 C22.71197756 39.16639726 22.888631 30.33995655 22.9375 21.4375 C22.94252457 19.84049619 22.94708579 18.24349086 22.95117188 16.64648438 C22.96210272 12.76428467 22.97931467 8.88215949 23 5 C21.97447021 4.94593994 20.94894043 4.89187988 19.89233398 4.83618164 C18.53106795 4.75700417 17.16982221 4.67747722 15.80859375 4.59765625 C14.79750549 4.54575134 14.79750549 4.54575134 13.76599121 4.49279785 C8.602062 4.17959398 4.65383502 3.18445317 0 1 C0 0.67 0 0.34 0 0 Z " fill="#BDBFAE" transform="translate(472,378)"/>
<path d="M0 0 C1.15242188 0.01804688 2.30484375 0.03609375 3.4921875 0.0546875 C4.36101562 0.07789063 5.22984375 0.10109375 6.125 0.125 C6.125 0.455 6.125 0.785 6.125 1.125 C5.2278125 1.18816406 4.330625 1.25132813 3.40625 1.31640625 C-4.21983914 2.06483442 -10.72286442 3.5038712 -17.75 6.625 C-18.44544922 6.93381104 -19.14089844 7.24262207 -19.85742188 7.56079102 C-23.52297879 9.10423915 -23.52297879 9.10423915 -25.875 12.125 C-32.06268968 15.27721927 -32.06268968 15.27721927 -35.10546875 14.70703125 C-35.98138672 14.41892578 -35.98138672 14.41892578 -36.875 14.125 C-35.58686658 13.28621545 -34.29436744 12.45413217 -33 11.625 C-32.28070313 11.1609375 -31.56140625 10.696875 -30.8203125 10.21875 C-28.875 9.125 -28.875 9.125 -26.875 9.125 C-26.545 8.135 -26.215 7.145 -25.875 6.125 C-23.14453125 5.02734375 -23.14453125 5.02734375 -19.6875 4.0625 C-18.55957031 3.74152344 -17.43164062 3.42054687 -16.26953125 3.08984375 C-15.14933594 2.77144531 -14.02914063 2.45304687 -12.875 2.125 C-11.88628906 1.75761719 -10.89757812 1.39023438 -9.87890625 1.01171875 C-6.44837959 -0.00093346 -3.56876086 -0.07283185 0 0 Z " fill="#C5C283" transform="translate(366.875,63.875)"/>
<path d="M0 0 C0.33 0 0.66 0 1 0 C1.09796875 0.61488281 1.1959375 1.22976563 1.296875 1.86328125 C1.44640625 2.67152344 1.5959375 3.47976563 1.75 4.3125 C1.88921875 5.11300781 2.0284375 5.91351563 2.171875 6.73828125 C3.24054228 9.65695272 4.27956563 10.52506571 7 12 C9.71133734 12.47221742 9.71133734 12.47221742 12.5625 12.375 C13.98755859 12.38660156 13.98755859 12.38660156 15.44140625 12.3984375 C18.4049738 11.93693538 19.12281661 11.2515027 21 9 C23.91153462 7.13363165 26.88508292 5.49977489 30 4 C27.40259936 8.42520109 25.81309013 10.30891428 21 12 C20.67 12.99 20.34 13.98 20 15 C15.66710581 17.16644709 10.18639268 16.28561305 5.625 15.1875 C2.97207925 13.98736918 1.7371549 13.2960656 0 11 C-0.29296875 8.30078125 -0.29296875 8.30078125 -0.1875 5.3125 C-0.16042969 4.31863281 -0.13335937 3.32476562 -0.10546875 2.30078125 C-0.07066406 1.54152344 -0.03585937 0.78226562 0 0 Z " fill="#D4C580" transform="translate(326,268)"/>
<path d="M0 0 C0.33 0 0.66 0 1 0 C1.02283554 0.66461746 1.04567108 1.32923492 1.06919861 2.01399231 C1.30895305 8.97422313 1.55303794 15.9342928 1.79956055 22.89428711 C1.89082551 25.48669668 1.98101161 28.07914449 2.07006836 30.67163086 C2.19877339 34.41270516 2.33144581 38.15362169 2.46484375 41.89453125 C2.50343002 43.04081497 2.5420163 44.18709869 2.58177185 45.36811829 C2.33799636 56.99722618 2.33799636 56.99722618 5 68 C4.01 68 3.02 68 2 68 C1.92652344 66.95199219 1.92652344 66.95199219 1.8515625 65.8828125 C1.77679688 64.97273438 1.70203125 64.06265625 1.625 63.125 C1.55539062 62.22007812 1.48578125 61.31515625 1.4140625 60.3828125 C1.20431868 57.82058097 1.20431868 57.82058097 -1 56 C-0.67 55.01 -0.34 54.02 0 53 C0.0878506 51.26654193 0.11764814 49.52986731 0.11352539 47.79418945 C0.11344986 46.73331619 0.11337433 45.67244293 0.11329651 44.579422 C0.10813522 43.43559555 0.10297394 42.2917691 0.09765625 41.11328125 C0.0962413 39.94113571 0.09482635 38.76899017 0.09336853 37.56132507 C0.08776388 33.81169093 0.07521056 30.06211615 0.0625 26.3125 C0.0574856 23.77278732 0.05292259 21.2330737 0.04882812 18.69335938 C0.03779294 12.46221927 0.02105025 6.23111388 0 0 Z " fill="#B5B29F" transform="translate(494,289)"/>
<path d="M0 0 C1.21236328 0.02707031 1.21236328 0.02707031 2.44921875 0.0546875 C3.37154297 0.08949219 3.37154297 0.08949219 4.3125 0.125 C4.3125 0.455 4.3125 0.785 4.3125 1.125 C2.6625 1.125 1.0125 1.125 -0.6875 1.125 C-0.6875 1.785 -0.6875 2.445 -0.6875 3.125 C-13.75761904 6.10031165 -30.11390259 7.68385359 -42.6875 2.125 C-39.67718256 1.19076355 -38.82099732 1.08050089 -35.6875 2.125 C-31.02452259 2.36156818 -26.3558321 2.31017976 -21.6875 2.3125 C-19.74230469 2.33086914 -19.74230469 2.33086914 -17.7578125 2.34960938 C-16.51773437 2.35154297 -15.27765625 2.35347656 -14 2.35546875 C-12.86175781 2.35957764 -11.72351563 2.36368652 -10.55078125 2.36791992 C-6.45647235 2.02055998 -4.30783631 -0.12486482 0 0 Z " fill="#8C6138" transform="translate(436.6875,327.875)"/>
<path d="M0 0 C0.66 0 1.32 0 2 0 C2.4125 1.134375 2.825 2.26875 3.25 3.4375 C4.3997805 6.54190735 5.70133975 9.51239182 7.125 12.5 C9.72098847 18.26886326 10.75409888 23.76320397 9 30 C8.01 30 7.02 30 6 30 C5.98582031 29.22398437 5.97164063 28.44796875 5.95703125 27.6484375 C5.6017405 19.60158224 4.01313741 13.34757023 1.05859375 5.8984375 C0 3 0 3 0 0 Z " fill="#C8B779" transform="translate(479,274)"/>
<path d="M0 0 C0.66 1.32 1.32 2.64 2 4 C3.32 4 4.64 4 6 4 C6 4.66 6 5.32 6 6 C6.99 6 7.98 6 9 6 C9 6.66 9 7.32 9 8 C11.97 8 14.94 8 18 8 C18 8.33 18 8.66 18 9 C15.64575325 9.02726927 13.29183038 9.04696719 10.9375 9.0625 C8.97103516 9.07990234 8.97103516 9.07990234 6.96484375 9.09765625 C3.1836481 9.00452335 -0.27920707 8.61448726 -4 8 C-4 7.34 -4 6.68 -4 6 C-4.68707031 5.95101563 -5.37414062 5.90203125 -6.08203125 5.8515625 C-6.98308594 5.77679688 -7.88414062 5.70203125 -8.8125 5.625 C-9.70582031 5.55539062 -10.59914063 5.48578125 -11.51953125 5.4140625 C-14 5 -14 5 -17 3 C-15.68 3 -14.36 3 -13 3 C-12.34 2.34 -11.68 1.68 -11 1 C-11 1.66 -11 2.32 -11 3 C-10.34 3 -9.68 3 -9 3 C-9 3.66 -9 4.32 -9 5 C-7.02 4.34 -5.04 3.68 -3 3 C-3 3.66 -3 4.32 -3 5 C-2.34 4.67 -1.68 4.34 -1 4 C-0.34786708 1.97536745 -0.34786708 1.97536745 0 0 Z " fill="#85522E" transform="translate(411,364)"/>
<path d="M0 0 C1.32 0.66 2.64 1.32 4 2 C3.731875 2.61875 3.46375 3.2375 3.1875 3.875 C1.5516213 8.17994393 0.28728674 12.58031552 -1 17 C-2.32 16.67 -3.64 16.34 -5 16 C-5 16.66 -5 17.32 -5 18 C-8.04983996 19.52491998 -10.6423369 19.23562548 -14 19 C-15.72265625 17.484375 -15.72265625 17.484375 -17 16 C-16.00419922 15.85304688 -16.00419922 15.85304688 -14.98828125 15.703125 C-7.61383417 14.56329031 -7.61383417 14.56329031 -2 10 C-1.01904649 6.6990136 -0.43634689 3.41262343 0 0 Z " fill="#492E23" transform="translate(423,262)"/>
<path d="M0 0 C0.66 0.33 1.32 0.66 2 1 C0.36467209 4.27065582 -0.84561582 5.89817214 -3.9375 7.9375 C-7.50214853 10.33818166 -8.84366742 12.3508218 -11 16 C-13.92879371 15.37240135 -16.36095629 14.41377341 -19 13 C-17.8125 11.4375 -17.8125 11.4375 -16 10 C-13.3125 10.3125 -13.3125 10.3125 -11 11 C-10.67 10.01 -10.34 9.02 -10 8 C-7.4375 6.8125 -7.4375 6.8125 -5 6 C-5 5.01 -5 4.02 -5 3 C-4.34 3 -3.68 3 -3 3 C-3 2.34 -3 1.68 -3 1 C-2.01 0.67 -1.02 0.34 0 0 Z " fill="#D6CFBD" transform="translate(400,232)"/>
<path d="M0 0 C0.66 2.31 1.32 4.62 2 7 C1.34 7 0.68 7 0 7 C-0.25007813 6.35546875 -0.50015625 5.7109375 -0.7578125 5.046875 C-1.16773438 4.37140625 -1.57765625 3.6959375 -2 3 C-8.10870897 1.81766923 -14.09753532 1.95743579 -20.30078125 2.16015625 C-23.07862701 1.99533472 -24.64300358 1.42763441 -27 0 C-25.66666667 -0.33333333 -24.33333333 -0.66666667 -23 -1 C-22.37867188 -1.17273438 -21.75734375 -1.34546875 -21.1171875 -1.5234375 C-14.02802577 -3.11915287 -6.94780242 -1.62453835 0 0 Z " fill="#D1CDB0" transform="translate(424,452)"/>
<path d="M0 0 C0.33 0 0.66 0 1 0 C1 2.97 1 5.94 1 9 C0.34 8.67 -0.32 8.34 -1 8 C-5.31467673 8.42480408 -9.01368514 9.01368514 -12.125 12.125 C-14 14 -14 14 -17.625 14.3125 C-21 14 -21 14 -23 13 C-23 12.34 -23 11.68 -23 11 C-22.28972656 10.87882812 -21.57945312 10.75765625 -20.84765625 10.6328125 C-19.92855469 10.46523438 -19.00945312 10.29765625 -18.0625 10.125 C-16.68771484 9.88136719 -16.68771484 9.88136719 -15.28515625 9.6328125 C-14.53105469 9.42398437 -13.77695312 9.21515625 -13 9 C-12.67 8.34 -12.34 7.68 -12 7 C-9.78515625 6.54296875 -9.78515625 6.54296875 -7.0625 6.1875 C-4.36870981 5.77190677 -4.36870981 5.77190677 -2 5 C-0.24431996 2.54251602 -0.24431996 2.54251602 0 0 Z " fill="#AB9045" transform="translate(463,455)"/>
<path d="M0 0 C0.33 0.66 0.66 1.32 1 2 C0.0925 2.226875 -0.815 2.45375 -1.75 2.6875 C-6.51969207 4.6137218 -8.22198297 7.83297445 -11 12 C-14.74132944 13.97459054 -17.80941988 14.1949107 -22 14 C-22.33 12.68 -22.66 11.36 -23 10 C-22.01 9.67 -21.02 9.34 -20 9 C-19.34 9.66 -18.68 10.32 -18 11 C-17.236875 10.505 -16.47375 10.01 -15.6875 9.5 C-13 8 -13 8 -10 8 C-9.9175 7.236875 -9.835 6.47375 -9.75 5.6875 C-9 3 -9 3 -7.25 1.1875 C-4.62847443 -0.19608294 -2.92325122 -0.24360427 0 0 Z " fill="#D0C4B0" transform="translate(492,443)"/>
<path d="M0 0 C10.75820351 -0.30384048 20.65608586 -0.46861792 31 3 C31 3.33 31 3.66 31 4 C20.65600473 4.21904931 10.19119406 3.86004922 0 2 C0 1.34 0 0.68 0 0 Z " fill="#D1D3B6" transform="translate(448,377)"/>
<path d="M0 0 C1.4540625 0.0309375 1.4540625 0.0309375 2.9375 0.0625 C3.5625 3.4375 3.5625 3.4375 3.9375 7.0625 C1.9375 9.0625 1.9375 9.0625 -0.5625 9.3125 C-3.0625 9.0625 -3.0625 9.0625 -5.0625 7.0625 C-4.35089733 0.08879382 -4.35089733 0.08879382 0 0 Z " fill="#634336" transform="translate(412.0625,261.9375)"/>
<path d="M0 0 C0.66 0.66 1.32 1.32 2 2 C1.875 4.5 1.875 4.5 1 7 C-2.2955753 9.66181082 -5.93339881 9.15640774 -10 9 C-10.66 7.68 -11.32 6.36 -12 5 C-11.01 5 -10.02 5 -9 5 C-9 4.34 -9 3.68 -9 3 C-6.69 3.33 -4.38 3.66 -2 4 C-1.34 2.68 -0.68 1.36 0 0 Z " fill="#D7D3C6" transform="translate(417,269)"/>
<path d="M0 0 C8.415 1.98 8.415 1.98 17 4 C17 4.66 17 5.32 17 6 C17.92941406 6.06058594 18.85882813 6.12117188 19.81640625 6.18359375 C32.09490334 7.01581722 32.09490334 7.01581722 38 8 C38 8.33 38 8.66 38 9 C35.16644901 8.85771699 32.33321213 8.71126584 29.5 8.5625 C28.70851563 8.52318359 27.91703125 8.48386719 27.1015625 8.44335938 C19.82887611 8.05588018 12.88375482 7.58140806 6 5 C6 4.34 6 3.68 6 3 C4.35 3 2.7 3 1 3 C0.67 2.01 0.34 1.02 0 0 Z " fill="#C4B28B" transform="translate(390,366)"/>
<path d="M0 0 C5.94 1.485 5.94 1.485 12 3 C12 2.01 12 1.02 12 0 C12.66 0.33 13.32 0.66 14 1 C13.67 1.99 13.34 2.98 13 4 C12.6946182 8.654797 12.6946182 8.654797 14 13 C12 12 10 11 8 10 C8 9.34 8 8.68 8 8 C7.34 8 6.68 8 6 8 C4.97388051 6.34928604 3.97691857 4.68029994 3 3 C2.01 2.01 1.02 1.02 0 0 Z " fill="#633C2F" transform="translate(416,254)"/>
<path d="M0 0 C0 0.66 0 1.32 0 2 C-1.64333504 3.03789581 -3.31243867 4.03567924 -5 5 C-5.66 5.66 -6.32 6.32 -7 7 C-8.99117408 7.69258229 -10.9921136 8.35747635 -13 9 C-13.721875 9.37125 -14.44375 9.7425 -15.1875 10.125 C-17 11 -17 11 -20 11 C-20 10.34 -20 9.68 -20 9 C-19.01 8.67 -18.02 8.34 -17 8 C-16.5875 7.566875 -16.175 7.13375 -15.75 6.6875 C-11.36636325 2.46042171 -6.08377073 0 0 0 Z " fill="#D0CFAE" transform="translate(476,317)"/>
<path d="M0 0 C3 0.125 3 0.125 4 1.125 C4.25 4.0625 4.25 4.0625 4 7.125 C1 9.125 1 9.125 -1.125 8.8125 C-3 8.125 -3 8.125 -4 7.125 C-4.125 4.125 -4.125 4.125 -4 1.125 C-3 0.125 -3 0.125 0 0 Z " fill="#50362B" transform="translate(440,256.875)"/>
<path d="M0 0 C0.99 0 1.98 0 3 0 C3 15.51 3 31.02 3 47 C4.65 47 6.3 47 8 47 C8 47.33 8 47.66 8 48 C6.02 48 4.04 48 2 48 C2 33.15 2 18.3 2 3 C1.01 3.33 0.02 3.66 -1 4 C-0.67 2.68 -0.34 1.36 0 0 Z " fill="#AC8048" transform="translate(483,450)"/>
<path d="M0 0 C2.03833424 1.2739589 4.03852126 2.61061923 6 4 C6 4.66 6 5.32 6 6 C7.74985354 6.47970123 9.49988891 6.95873924 11.25 7.4375 C12.71179688 7.83775391 12.71179688 7.83775391 14.203125 8.24609375 C15.58757812 8.61927734 15.58757812 8.61927734 17 9 C17.62841797 9.17402344 18.25683594 9.34804688 18.90429688 9.52734375 C21.07708623 10.01738571 23.10486213 10.20524311 25.328125 10.31640625 C26.52695312 10.37924805 26.52695312 10.37924805 27.75 10.44335938 C28.9875 10.50233398 28.9875 10.50233398 30.25 10.5625 C31.09046875 10.60568359 31.9309375 10.64886719 32.796875 10.69335938 C34.86440671 10.79908543 36.93218281 10.90001295 39 11 C39 11.33 39 11.66 39 12 C35.64590806 12.05859857 32.29194983 12.09379582 28.9375 12.125 C27.99455078 12.14175781 27.05160156 12.15851563 26.08007812 12.17578125 C17.9818622 12.23221481 12.21684842 10.87245525 5 7 C5 6.34 5 5.68 5 5 C3.68 5 2.36 5 1 5 C0.67 3.35 0.34 1.7 0 0 Z " fill="#C4AF85" transform="translate(383,322)"/>
<path d="M0 0 C0.70125 0.309375 1.4025 0.61875 2.125 0.9375 C7.37406653 2.87737241 12.58993983 3.15012641 18.1484375 3.31640625 C18.80582916 3.33718735 19.46322083 3.35796844 20.14053345 3.37937927 C22.21859362 3.44420753 24.29676856 3.50344564 26.375 3.5625 C27.79298011 3.60574888 29.21094907 3.64936509 30.62890625 3.69335938 C34.0858188 3.79981918 37.54285706 3.90126984 41 4 C41 4.33 41 4.66 41 5 C10.72150895 7.6871561 10.72150895 7.6871561 1 3 C0.67 2.01 0.34 1.02 0 0 Z " fill="#D1D2B3" transform="translate(390,330)"/>
<path d="M0 0 C0 3.3 0 6.6 0 10 C-0.33 10 -0.66 10 -1 10 C-1 8.02 -1 6.04 -1 4 C-1.66 4 -2.32 4 -3 4 C-3 4.66 -3 5.32 -3 6 C-4.65 5.67 -6.3 5.34 -8 5 C-8.6496875 5.99 -8.6496875 5.99 -9.3125 7 C-9.869375 7.66 -10.42625 8.32 -11 9 C-11.99 9 -12.98 9 -14 9 C-13.9375 6.6875 -13.9375 6.6875 -13 4 C-9.01211152 1.85267543 -4.62184562 0 0 0 Z " fill="#C49D63" transform="translate(381,286)"/>
<path d="M0 0 C0.69738281 0.00902344 1.39476562 0.01804687 2.11328125 0.02734375 C3.82566958 0.05080112 5.53788004 0.08666896 7.25 0.125 C7.25 2.105 7.25 4.085 7.25 6.125 C6.92 4.805 6.59 3.485 6.25 2.125 C-2.01082413 3.13677241 -9.86962476 4.401368 -17.75 7.125 C-17.42 6.135 -17.09 5.145 -16.75 4.125 C-14.4375 3.0625 -14.4375 3.0625 -11.75 2.125 C-11.19441406 1.77824219 -10.63882812 1.43148438 -10.06640625 1.07421875 C-6.74713261 -0.28595578 -3.52347356 -0.0865882 0 0 Z " fill="#874E21" transform="translate(377.75,259.875)"/>
<path d="M0 0 C2 2 2 2 2.22705078 4.43017578 C2.21134033 5.92266846 2.21134033 5.92266846 2.1953125 7.4453125 C2.18564453 9.05986328 2.18564453 9.05986328 2.17578125 10.70703125 C2.15902344 11.83496094 2.14226562 12.96289062 2.125 14.125 C2.11597656 15.26066406 2.10695313 16.39632813 2.09765625 17.56640625 C2.07403098 20.37781299 2.04109013 23.18880298 2 26 C1.67 26 1.34 26 1 26 C0.67 18.74 0.34 11.48 0 4 C-4.07367344 4.58195335 -7.9978771 5.15106484 -12 6 C-10.72030166 3.44060332 -9.5671854 2.20776022 -6.8671875 1.21875 C-2.35547535 0.11620941 -2.35547535 0.11620941 0 0 Z " fill="#C7B36A" transform="translate(462,462)"/>
<path d="M0 0 C-5.05919483 6.20337241 -10.09488664 10.92406503 -17 15 C-17.33 14.34 -17.66 13.68 -18 13 C-17.34 13 -16.68 13 -16 13 C-16 12.34 -16 11.68 -16 11 C-15.01 11 -14.02 11 -13 11 C-13 10.34 -13 9.68 -13 9 C-12.34 9 -11.68 9 -11 9 C-10.566875 7.7934375 -10.566875 7.7934375 -10.125 6.5625 C-9 4 -9 4 -7 3 C-6.67 2.01 -6.34 1.02 -6 0 C-3 -1 -3 -1 0 0 Z " fill="#6D3A1B" transform="translate(482,304)"/>
<path d="M0 0 C0.66 0.33 1.32 0.66 2 1 C2 7.93 2 14.86 2 22 C1.34 22 0.68 22 0 22 C-0.33 22.99 -0.66 23.98 -1 25 C-2.0421083 16.26882235 -1.8748591 8.59956034 0 0 Z " fill="#CAC899" transform="translate(278,170)"/>
<path d="M0 0 C0.66 0 1.32 0 2 0 C2.34162681 3.91598818 2.67172425 7.83287182 3 11.75 C3.09539062 12.84183594 3.19078125 13.93367187 3.2890625 15.05859375 C3.89650024 22.39123498 4.11978269 29.64334659 4 37 C3.67 37 3.34 37 3 37 C2.94465088 36.31373535 2.88930176 35.6274707 2.83227539 34.92041016 C2.57994697 31.82157565 2.32130351 28.72330016 2.0625 25.625 C1.97548828 24.54476562 1.88847656 23.46453125 1.79882812 22.3515625 C1.71181641 21.3203125 1.62480469 20.2890625 1.53515625 19.2265625 C1.456604 18.27346191 1.37805176 17.32036133 1.29711914 16.33837891 C1.12871826 13.98168205 1.12871826 13.98168205 0 12 C-0.07065617 9.95944995 -0.08421976 7.91665743 -0.0625 5.875 C-0.05347656 4.77929688 -0.04445313 3.68359375 -0.03515625 2.5546875 C-0.02355469 1.71164063 -0.01195312 0.86859375 0 0 Z " fill="#C1C2AB" transform="translate(488,131)"/>
<path d="M0 0 C8.89252296 -0.26197285 17.24996282 0.3960652 26 2 C25.01 3.485 25.01 3.485 24 5 C24 4.34 24 3.68 24 3 C23.01 3.33 22.02 3.66 21 4 C18.56055328 3.96316747 16.1218849 3.84882917 13.6875 3.6875 C12.39199219 3.60886719 11.09648437 3.53023438 9.76171875 3.44921875 C6.24055572 3.0287268 3.30398376 2.25500158 0 1 C0 0.67 0 0.34 0 0 Z " fill="#5B3221" transform="translate(416,354)"/>
<path d="M0 0 C0 0.99 0 1.98 0 3 C-0.99 3 -1.98 3 -3 3 C-5.13510272 4.69028966 -6.16223281 6.29066711 -7.5 8.6875 C-7.995 9.450625 -8.49 10.21375 -9 11 C-9.99 11 -10.98 11 -12 11 C-11.21619539 9.18408626 -10.42271553 7.37234593 -9.625 5.5625 C-9.18414062 4.55316406 -8.74328125 3.54382813 -8.2890625 2.50390625 C-6.09803586 -1.75199701 -4.25162875 -1.0069647 0 0 Z " fill="#744633" transform="translate(493,345)"/>
<path d="M0 0 C1 3 1 3 0.0625 5.125 C-2.92474016 7.84067287 -6.10087804 8.09861593 -10 8 C-13 7.0625 -13 7.0625 -15 6 C-15 5.67 -15 5.34 -15 5 C-12.03 5 -9.06 5 -6 5 C-6 4.34 -6 3.68 -6 3 C-4.02 2.01 -2.04 1.02 0 0 Z " fill="#452B20" transform="translate(450,268)"/>
<path d="M0 0 C0.66 0.33 1.32 0.66 2 1 C0.68 1.33 -0.64 1.66 -2 2 C-2 3.32 -2 4.64 -2 6 C-3.01320313 6.25523437 -3.01320313 6.25523437 -4.046875 6.515625 C-10.88111967 8.30038593 -10.88111967 8.30038593 -16 13 C-16.66 12.67 -17.32 12.34 -18 12 C-12.65324808 6.81753375 -7.08760784 2.52940652 0 0 Z " fill="#C3A35E" transform="translate(366,264)"/>
<path d="M0 0 C0.66 0 1.32 0 2 0 C2 4.95 2 9.9 2 15 C-0.64 15 -3.28 15 -6 15 C-5.67 14.01 -5.34 13.02 -5 12 C-4.33484375 11.71382813 -3.6696875 11.42765625 -2.984375 11.1328125 C-2.32953125 10.75898438 -1.6746875 10.38515625 -1 10 C-0.29823412 7.58320293 -0.29823412 7.58320293 -0.25 4.875 C-0.19328125 3.96492188 -0.1365625 3.05484375 -0.078125 2.1171875 C-0.05234375 1.41851562 -0.0265625 0.71984375 0 0 Z " fill="#82421E" transform="translate(482,485)"/>
<path d="M0 0 C0.66 0.309375 1.32 0.61875 2 0.9375 C5.70476015 2.24960255 9.09263991 2.60264135 13 3 C13.33 2.01 13.66 1.02 14 0 C14.33 2.31 14.66 4.62 15 7 C13.54176788 7.0270043 12.08339325 7.04639787 10.625 7.0625 C9.81289063 7.07410156 9.00078125 7.08570313 8.1640625 7.09765625 C6 7 6 7 4 6 C4 5.34 4 4.68 4 4 C2.68 3.34 1.36 2.68 0 2 C0 1.34 0 0.68 0 0 Z " fill="#B59457" transform="translate(367,312)"/>
<path d="M0 0 C0.66 0 1.32 0 2 0 C2.66 0.99 3.32 1.98 4 3 C7.56769552 3.73606499 7.56769552 3.73606499 11 4 C11 4.33 11 4.66 11 5 C7.6875 6.125 7.6875 6.125 4 7 C3.01 6.34 2.02 5.68 1 5 C-1.73872955 4.54227937 -1.73872955 4.54227937 -4.6875 4.375 C-6.17830078 4.26285156 -6.17830078 4.26285156 -7.69921875 4.1484375 C-8.45847656 4.09945312 -9.21773438 4.05046875 -10 4 C-8.203125 2.48046875 -8.203125 2.48046875 -6 1 C-2.75 1.3125 -2.75 1.3125 0 2 C0 1.34 0 0.68 0 0 Z " fill="#7E4324" transform="translate(489,234)"/>
<path d="M0 0 C0.33 0 0.66 0 1 0 C1.33 5.61 1.66 11.22 2 17 C2.66 17 3.32 17 4 17 C4 18.32 4 19.64 4 21 C5.299375 21.12375 6.59875 21.2475 7.9375 21.375 C10.15234375 21.5859375 10.15234375 21.5859375 12 22 C12.33 22.66 12.66 23.32 13 24 C5.74590164 23.51639344 5.74590164 23.51639344 2.5625 21.3125 C-0.49483041 16.78765099 -0.11661241 11.42801613 -0.0625 6.125 C-0.05347656 4.97257812 -0.04445313 3.82015625 -0.03515625 2.6328125 C-0.02355469 1.76398438 -0.01195312 0.89515625 0 0 Z " fill="#D7A176" transform="translate(275,467)"/>
<path d="M0 0 C1.65583225 0.69313908 3.32110979 1.36474424 5 2 C5 2.33 5 2.66 5 3 C2.36 3 -0.28 3 -3 3 C-3 2.34 -3 1.68 -3 1 C-3.77085937 0.95101563 -4.54171875 0.90203125 -5.3359375 0.8515625 C-6.84027344 0.73941406 -6.84027344 0.73941406 -8.375 0.625 C-9.87160156 0.52058594 -9.87160156 0.52058594 -11.3984375 0.4140625 C-14 0 -14 0 -16 -2 C-5.42068966 -3.6137931 -5.42068966 -3.6137931 0 0 Z " fill="#D8D2AD" transform="translate(443,463)"/>
<path d="M0 0 C2.31 0 4.62 0 7 0 C7 0.66 7 1.32 7 2 C7.99 2.33 8.98 2.66 10 3 C9.67 3.66 9.34 4.32 9 5 C1.58823529 6.29411765 1.58823529 6.29411765 -1 5 C-0.67 3.35 -0.34 1.7 0 0 Z " fill="#D8D8C9" transform="translate(437,250)"/>
<path d="M0 0 C0.99 0.33 1.98 0.66 3 1 C2 4 2 4 -1 6 C-0.67 7.65 -0.34 9.3 0 11 C-4.875 9.25 -4.875 9.25 -6 7 C-4.31525278 3.63050557 -3.1808342 2.12055614 0 0 Z " fill="#733A1A" transform="translate(465,239)"/>
<path d="M0 0 C1.33650858 4.00952575 1.20225023 7.82016197 1 12 C0.34 12.66 -0.32 13.32 -1 14 C-1.45974503 15.92901141 -1.45974503 15.92901141 -1.6328125 18.1328125 C-1.75849609 19.34130859 -1.75849609 19.34130859 -1.88671875 20.57421875 C-1.96535156 21.41597656 -2.04398437 22.25773437 -2.125 23.125 C-2.21136719 23.97449219 -2.29773438 24.82398438 -2.38671875 25.69921875 C-2.59902557 27.79869727 -2.80053603 29.89926242 -3 32 C-3.33 32 -3.66 32 -4 32 C-4.62363378 21.51371352 -3.33232511 9.99697533 0 0 Z " fill="#E1E0C6" transform="translate(284,108)"/>
<path d="M0 0 C0.625 1.75 0.625 1.75 1 4 C0.67 4.61875 0.34 5.2375 0 5.875 C-1.39190168 8.83279108 -0.70802995 10.88466822 0 14 C-0.99 14.33 -1.98 14.66 -3 15 C-2.34 16.65 -1.68 18.3 -1 20 C-1.66 20 -2.32 20 -3 20 C-4.97745122 15.23085293 -5.11867051 12.03401727 -4 7 C-2.9375 4.5625 -2.9375 4.5625 -2 3 C-1.34 3 -0.68 3 0 3 C0 2.01 0 1.02 0 0 Z M-4 12 C-3 14 -3 14 -3 14 Z " fill="#D4D4B3" transform="translate(381,431)"/>
<path d="M0 0 C21.96875 1.1875 21.96875 1.1875 27 6 C26.01 6.495 26.01 6.495 25 7 C23.3566404 6.27878298 21.71472667 5.55403157 20.08154297 4.81005859 C16.36808207 3.36491864 12.48804564 2.89136773 8.5625 2.3125 C7.73556641 2.18294922 6.90863281 2.05339844 6.05664062 1.91992188 C4.0390302 1.6050347 2.0196769 1.30134862 0 1 C0 0.67 0 0.34 0 0 Z " fill="#DFDDC9" transform="translate(398,40)"/>
<path d="M0 0 C5.31765218 0.44904618 9.93936056 1.24426795 15 3 C17.63634585 3.52001317 20.27554281 3.99381285 22.92578125 4.4375 C23.61027344 4.623125 24.29476563 4.80875 25 5 C25.33 5.66 25.66 6.32 26 7 C16.83404773 6.75763107 8.60321558 3.89264444 0 1 C0 0.67 0 0.34 0 0 Z " fill="#CCBDA9" transform="translate(402,347)"/>
<path d="M0 0 C0.33 0 0.66 0 1 0 C1.26840376 3.13137714 1.23906152 4.63144683 -0.5 7.3125 C-2.59345866 11.06328009 -2.21640633 13.74400887 -2 18 C-2.99 17.67 -3.98 17.34 -5 17 C-5.27791685 11.53430204 -5.29277069 8.55922096 -2 4 C-1.31903578 2.67391178 -0.64669414 1.34313399 0 0 Z " fill="#D4D5B1" transform="translate(365,382)"/>
<path d="M0 0 C0.33 0 0.66 0 1 0 C1.09796875 0.61488281 1.1959375 1.22976563 1.296875 1.86328125 C2.15281022 6.7598258 2.15281022 6.7598258 4.5625 11 C8.26707361 12.51982507 12.02789145 12.75386507 16 13 C16 13.33 16 13.66 16 14 C13.89646505 14.0810206 11.79204048 14.13919907 9.6875 14.1875 C7.92986328 14.23970703 7.92986328 14.23970703 6.13671875 14.29296875 C3 14 3 14 1.09375 12.84375 C-0.44203903 10.25484849 -0.29286163 8.29774611 -0.1875 5.3125 C-0.16042969 4.31863281 -0.13335937 3.32476562 -0.10546875 2.30078125 C-0.07066406 1.54152344 -0.03585937 0.78226562 0 0 Z " fill="#C7B175" transform="translate(326,268)"/>
<path d="M0 0 C0.66 0 1.32 0 2 0 C2 0.66 2 1.32 2 2 C1.01 2.495 1.01 2.495 0 3 C-0.45375 3.99 -0.9075 4.98 -1.375 6 C-3 9 -3 9 -5.1875 9.875 C-6.0846875 9.936875 -6.0846875 9.936875 -7 10 C-7.33 12.64 -7.66 15.28 -8 18 C-8.33 18 -8.66 18 -9 18 C-8.67 15.36 -8.34 12.72 -8 10 C-8.66 10 -9.32 10 -10 10 C-10 9.34 -10 8.68 -10 8 C-8.9171875 7.9690625 -8.9171875 7.9690625 -7.8125 7.9375 C-4.09353052 6.69784351 -3.11956133 4.74404554 -1.11328125 1.49609375 C-0.74589844 1.00238281 -0.37851562 0.50867188 0 0 Z " fill="#654A39" transform="translate(394,240)"/>
<path d="M0 0 C0 0.99 0 1.98 0 3 C-5.28 3 -10.56 3 -16 3 C-16.33 2.34 -16.66 1.68 -17 1 C-15.10440036 0.83069605 -13.20850769 0.66467136 -11.3125 0.5 C-10.25675781 0.4071875 -9.20101563 0.314375 -8.11328125 0.21875 C-5.39363975 0.0276585 -2.72460144 -0.04043935 0 0 Z " fill="#60311B" transform="translate(417,454)"/>
<path d="M0 0 C1.32 0.66 2.64 1.32 4 2 C4 2.66 4 3.32 4 4 C-5.57 4 -15.14 4 -25 4 C-25 3.67 -25 3.34 -25 3 C-17.08 2.67 -9.16 2.34 -1 2 C-0.67 1.34 -0.34 0.68 0 0 Z " fill="#7E4826" transform="translate(454,370)"/>
<path d="M0 0 C0.66 0.33 1.32 0.66 2 1 C-1.69775785 8.32735426 -1.69775785 8.32735426 -4.890625 9.9765625 C-6.8125 10.5 -6.8125 10.5 -10 11 C-8.4882584 6.76712351 -5.6677386 5.36874785 -2 3 C-1.34 2.01 -0.68 1.02 0 0 Z " fill="#C9C19A" transform="translate(481,307)"/>
<path d="M0 0 C4.38332057 0.82187261 8.67940177 1.90154282 13 3 C13 2.34 13 1.68 13 1 C13.99 1.33 14.98 1.66 16 2 C14.88671875 3.51953125 14.88671875 3.51953125 13 5 C10.08203125 5.07421875 10.08203125 5.07421875 6.8125 4.6875 C5.18248047 4.50767578 5.18248047 4.50767578 3.51953125 4.32421875 C2.68808594 4.21722656 1.85664063 4.11023438 1 4 C0.67 2.68 0.34 1.36 0 0 Z " fill="#5B321C" transform="translate(465,455)"/>
<path d="M0 0 C8.02114786 0.84433135 16.00861581 1.91553021 24 3 C24 3.33 24 3.66 24 4 C7.1070615 4.55353075 7.1070615 4.55353075 0 1 C0 0.67 0 0.34 0 0 Z " fill="#C7B58A" transform="translate(472,378)"/>
<path d="M0 0 C-0.33 3.63 -0.66 7.26 -1 11 C-1.33 11 -1.66 11 -2 11 C-2 9.02 -2 7.04 -2 5 C-2.99 5.33 -3.98 5.66 -5 6 C-5 5.34 -5 4.68 -5 4 C-5.66 3.67 -6.32 3.34 -7 3 C-7 3.66 -7 4.32 -7 5 C-8.98 5 -10.96 5 -13 5 C-3.38461538 0 -3.38461538 0 0 0 Z " fill="#6A3E24" transform="translate(485,453)"/>
<path d="M0 0 C0.33 0 0.66 0 1 0 C1.05389087 1.95803507 1.09274217 3.91648909 1.125 5.875 C1.14820313 6.96554687 1.17140625 8.05609375 1.1953125 9.1796875 C1 12 1 12 -1 14 C-3.32275177 14.40047444 -5.65739357 14.7397104 -8 15 C-6.60804085 12.2160817 -4.84424221 12.02101003 -2 11 C-1.93941406 10.28972656 -1.87882812 9.57945312 -1.81640625 8.84765625 C-1.73261719 7.92855469 -1.64882813 7.00945312 -1.5625 6.0625 C-1.48128906 5.14597656 -1.40007812 4.22945313 -1.31640625 3.28515625 C-1 1 -1 1 0 0 Z " fill="#CDBB8C" transform="translate(381,273)"/>
<path d="M0 0 C0.33 0 0.66 0 1 0 C0.67 2.97 0.34 5.94 0 9 C-1.32 9 -2.64 9 -4 9 C-4 6.69 -4 4.38 -4 2 C-2.68 2 -1.36 2 0 2 C0 1.34 0 0.68 0 0 Z " fill="#D7CEA7" transform="translate(492,488)"/>
<path d="M0 0 C0.76441406 -0.01417969 1.52882813 -0.02835937 2.31640625 -0.04296875 C4.4375 0.1875 4.4375 0.1875 7.4375 2.1875 C6.70144531 2.24808594 5.96539062 2.30867188 5.20703125 2.37109375 C3.74330078 2.49677734 3.74330078 2.49677734 2.25 2.625 C1.28707031 2.70621094 0.32414062 2.78742188 -0.66796875 2.87109375 C-3.54943774 3.13435549 -3.54943774 3.13435549 -6.28125 3.78125 C-9.06756368 4.27744285 -10.21086078 3.66816173 -12.5625 2.1875 C-11.22916667 1.85416667 -9.89583333 1.52083333 -8.5625 1.1875 C-7.64404297 0.92839844 -7.64404297 0.92839844 -6.70703125 0.6640625 C-4.41790486 0.15536775 -2.34325273 0.01982447 0 0 Z " fill="#D0D4BC" transform="translate(409.5625,449.8125)"/>
<path d="M0 0 C0.33 1.32 0.66 2.64 1 4 C-5.95041086 4.26618595 -12.23514355 3.6120509 -19 2 C-19 1.67 -19 1.34 -19 1 C-17.71222656 1.01160156 -16.42445313 1.02320313 -15.09765625 1.03515625 C-13.41927228 1.0445327 -11.74088674 1.05363305 -10.0625 1.0625 C-9.21236328 1.07087891 -8.36222656 1.07925781 -7.48632812 1.08789062 C-6.67744141 1.09111328 -5.86855469 1.09433594 -5.03515625 1.09765625 C-4.2862915 1.10289307 -3.53742676 1.10812988 -2.76586914 1.11352539 C-0.97332261 1.19341752 -0.97332261 1.19341752 0 0 Z " fill="#9C7749" transform="translate(496,377)"/>
<path d="M0 0 C0 0.33 0 0.66 0 1 C-1.3921875 1.1546875 -1.3921875 1.1546875 -2.8125 1.3125 C-6.14469855 2.03120949 -6.89621288 2.49549152 -9 5 C-12 7 -12 7 -15 8 C-14.1342843 5.33070993 -13.27808762 3.32258164 -11.4375 1.1875 C-7.71521629 -0.62592027 -4.06856367 -0.23472483 0 0 Z " fill="#CDBEAD" transform="translate(444,249)"/>
<path d="M0 0 C1.32 0.33 2.64 0.66 4 1 C3.01 1.66 2.02 2.32 1 3 C0.67 3.99 0.34 4.98 0 6 C-6.02694363 9.18404569 -6.02694363 9.18404569 -9.23046875 8.578125 C-9.81441406 8.38734375 -10.39835937 8.1965625 -11 8 C-9.71186658 7.16121545 -8.41936744 6.32913217 -7.125 5.5 C-6.40570313 5.0359375 -5.68640625 4.571875 -4.9453125 4.09375 C-3 3 -3 3 -1 3 C-0.67 2.01 -0.34 1.02 0 0 Z " fill="#CAC98F" transform="translate(341,70)"/>
<path d="M0 0 C1.17571451 3.67410785 1.07366746 7.16929183 1 11 C2.32 11.33 3.64 11.66 5 12 C5 13.32 5 14.64 5 16 C0.125 14.125 0.125 14.125 -1 13 C-1.09879565 11.189715 -1.12971514 9.37547273 -1.125 7.5625 C-1.12757813 6.57378906 -1.13015625 5.58507812 -1.1328125 4.56640625 C-1 2 -1 2 0 0 Z " fill="#76523A" transform="translate(388,351)"/>
<path d="M0 0 C0.33 0 0.66 0 1 0 C1 7.92 1 15.84 1 24 C0.34 24.33 -0.32 24.66 -1 25 C-1.38218767 23.34385343 -1.71395102 21.67542976 -2 20 C-1.67 19.67 -1.34 19.34 -1 19 C-0.84379445 17.58672053 -0.74943827 16.1664541 -0.68359375 14.74609375 C-0.64169922 13.89208984 -0.59980469 13.03808594 -0.55664062 12.15820312 C-0.51732422 11.26037109 -0.47800781 10.36253906 -0.4375 9.4375 C-0.39431641 8.53580078 -0.35113281 7.63410156 -0.30664062 6.70507812 C-0.20021858 4.47021515 -0.09820012 2.23523692 0 0 Z " fill="#D0D1AD" transform="translate(493,291)"/>
<path d="M0 0 C-0.70125 0.4125 -1.4025 0.825 -2.125 1.25 C-5.14153323 3.08615066 -8.07249245 5.02563445 -11 7 C-11.66 5.68 -12.32 4.36 -13 3 C-11.5903653 2.29819469 -10.17192359 1.61406042 -8.75 0.9375 C-7.96109375 0.55464844 -7.1721875 0.17179688 -6.359375 -0.22265625 C-3.74006478 -1.08564091 -2.55144824 -0.93045933 0 0 Z " fill="#6C442B" transform="translate(354,249)"/>
<path d="M0 0 C0.33 0.99 0.66 1.98 1 3 C-1 5 -1 5 -4.5 5.1875 C-8 5 -8 5 -10 4 C-10 3.34 -10 2.68 -10 2 C-6.7 1.34 -3.4 0.68 0 0 Z " fill="#B5A350" transform="translate(450,464)"/>
<path d="M0 0 C1.32 0.66 2.64 1.32 4 2 C3.01 2.495 3.01 2.495 2 3 C1.505 3.99 1.01 4.98 0.5 6 C-1 9 -1 9 -3 10 C-5.3329866 10.04022391 -7.66706666 10.04320247 -10 10 C-6.91190305 8.23537317 -5.76687864 8 -2 8 C-1.855625 7.236875 -1.71125 6.47375 -1.5625 5.6875 C-1 3 -1 3 0 0 Z " fill="#CEC7A2" transform="translate(462,452)"/>
<path d="M0 0 C-3.2334275 2.80178062 -6.10448769 3.74124175 -10.25 4.6875 C-11.32765625 4.93886719 -12.4053125 5.19023437 -13.515625 5.44921875 C-14.74539063 5.72185547 -14.74539063 5.72185547 -16 6 C-16 5.34 -16 4.68 -16 4 C-5.62642369 -0.59225513 -5.62642369 -0.59225513 0 0 Z " fill="#744223" transform="translate(458,322)"/>
<path d="M0 0 C0.66 0.33 1.32 0.66 2 1 C0.57142857 5.28571429 0.57142857 5.28571429 -2 7 C-5.6875 6.6875 -5.6875 6.6875 -9 6 C-6.45368965 3.02930459 -3.57769851 1.5224249 0 0 Z " fill="#57382A" transform="translate(408,232)"/>
<path d="M0 0 C1 2 2 4 3 6 C2.34 6 1.68 6 1 6 C0.566875 6.928125 0.566875 6.928125 0.125 7.875 C-1 10 -1 10 -3 12 C-3.99 11.67 -4.98 11.34 -6 11 C-5.01 10.67 -4.02 10.34 -3 10 C-2.87625 9.278125 -2.7525 8.55625 -2.625 7.8125 C-2.0095069 5.04278106 -1.11555626 2.6029646 0 0 Z " fill="#CABFA1" transform="translate(455,221)"/>
<path d="M0 0 C0.33 0 0.66 0 1 0 C1.33 2.97 1.66 5.94 2 9 C3.98 9.66 5.96 10.32 8 11 C8 11.66 8 12.32 8 13 C5.36 13 2.72 13 0 13 C0 8.71 0 4.42 0 0 Z " fill="#8A532D" transform="translate(396,487)"/>
<path d="M0 0 C0.33 0.66 0.66 1.32 1 2 C0.01 3.485 0.01 3.485 -1 5 C-1.36351504 7.02542148 -1.36351504 7.02542148 -1.4140625 9.23046875 C-1.45273437 10.03291016 -1.49140625 10.83535156 -1.53125 11.66210938 C-1.5621875 12.49548828 -1.593125 13.32886719 -1.625 14.1875 C-1.66367187 15.03248047 -1.70234375 15.87746094 -1.7421875 16.74804688 C-1.83636279 18.83167524 -1.91926675 20.91580753 -2 23 C-2.33 23 -2.66 23 -3 23 C-3 15.74 -3 8.48 -3 1 C-2.01 0.67 -1.02 0.34 0 0 Z " fill="#D0BD6D" transform="translate(422,455)"/>
<path d="M0 0 C0.99 0.33 1.98 0.66 3 1 C1.7934375 2.175625 1.7934375 2.175625 0.5625 3.375 C-2.89513149 7.43820536 -2.88796107 11.84620904 -3 17 C-3.33 17 -3.66 17 -4 17 C-5.19137147 10.66994194 -5.19430158 6.67875836 -2 1 C-1.34 0.67 -0.68 0.34 0 0 Z " fill="#CABFAA" transform="translate(390,346)"/>
<path d="M0 0 C2.32488647 3.63263511 2.23961213 6.76685233 2 11 C1.67 11.33 1.34 11.66 1 12 C0.76924918 13.34747084 0.58846937 14.70377565 0.4375 16.0625 C0.293125 17.361875 0.14875 18.66125 0 20 C-0.33 20 -0.66 20 -1 20 C-1.18451025 6.3667426 -1.18451025 6.3667426 0 0 Z " fill="#CCC69B" transform="translate(279,149)"/>
<path d="M0 0 C0.99 0 1.98 0 3 0 C3.17835515 4.54805635 2.99785435 7.8794254 1 12 C0.67 12 0.34 12 0 12 C0 8.04 0 4.08 0 0 Z " fill="#CBCE90" transform="translate(489,449)"/>
<path d="M0 0 C2.62561109 -0.08074203 5.24875676 -0.1403623 7.875 -0.1875 C8.99455078 -0.22520508 8.99455078 -0.22520508 10.13671875 -0.26367188 C12.3046875 -0.29296875 12.3046875 -0.29296875 16 0 C16.66 0.99 17.32 1.98 18 3 C12.06 2.34 6.12 1.68 0 1 C0 0.67 0 0.34 0 0 Z " fill="#C2A686" transform="translate(368,495)"/>
<path d="M0 0 C1.65 0.33 3.3 0.66 5 1 C4.01 1.495 4.01 1.495 3 2 C2.34227572 5.02934491 2.34227572 5.02934491 2 8 C-0.375 8.1875 -0.375 8.1875 -3 8 C-3.66 7.01 -4.32 6.02 -5 5 C-2.03 5.495 -2.03 5.495 1 6 C1.33 4.68 1.66 3.36 2 2 C1.34 2 0.68 2 0 2 C0 1.34 0 0.68 0 0 Z " fill="#D1D4AD" transform="translate(389,450)"/>
<path d="M0 0 C0.66 0.66 1.32 1.32 2 2 C1.8125 5 1.8125 5 1 8 C0.01 8.66 -0.98 9.32 -2 10 C-2 8.68 -2 7.36 -2 6 C-2.66 5.67 -3.32 5.34 -4 5 C-3.34 5 -2.68 5 -2 5 C-1.67 4.01 -1.34 3.02 -1 2 C-0.67 1.34 -0.34 0.68 0 0 Z " fill="#D8D9BD" transform="translate(453,218)"/>
<path d="M0 0 C0.66 0.33 1.32 0.66 2 1 C-0.99481865 5.22797927 -0.99481865 5.22797927 -3 7 C-6.3125 7.375 -6.3125 7.375 -9 7 C-6.25604436 4.05278838 -3.61662784 1.80831392 0 0 Z " fill="#D5D4B4" transform="translate(323,55)"/>
<path d="M0 0 C-0.33 0.66 -0.66 1.32 -1 2 C-1.99 2 -2.98 2 -4 2 C-4 2.99 -4 3.98 -4 5 C-6 4 -6 4 -7 3 C-7.33 3.99 -7.66 4.98 -8 6 C-10.0625 6.6875 -10.0625 6.6875 -12 7 C-9.87654283 1.40179474 -5.8147806 -0.49840977 0 0 Z " fill="#CAC797" transform="translate(340,50)"/>
<path d="M0 0 C3.3 0 6.6 0 10 0 C10.33 0.99 10.66 1.98 11 3 C7.37 2.67 3.74 2.34 0 2 C0 1.34 0 0.68 0 0 Z " fill="#B3A05C" transform="translate(428,463)"/>
<path d="M0 0 C0.99 0 1.98 0 3 0 C3 1.98 3 3.96 3 6 C1.02 6 -0.96 6 -3 6 C-2.34 5.67 -1.68 5.34 -1 5 C-1 4.34 -1 3.68 -1 3 C-1.99 2.67 -2.98 2.34 -4 2 C-2.68 2 -1.36 2 0 2 C0 1.34 0 0.68 0 0 Z " fill="#CBC993" transform="translate(391,456)"/>
<path d="M0 0 C0.33 0.66 0.66 1.32 1 2 C-0.36125 2.4021875 -0.36125 2.4021875 -1.75 2.8125 C-4.71471963 3.89576294 -6.6169754 4.98359457 -9 7 C-8.6875 4.625 -8.6875 4.625 -8 2 C-4.77208445 -0.1519437 -3.71599191 -0.20086443 0 0 Z " fill="#D6D1AC" transform="translate(492,443)"/>
<path d="M0 0 C0.33 0.99 0.66 1.98 1 3 C1.66 3 2.32 3 3 3 C4.625 5 4.625 5 6 7 C2 7 2 7 0 6 C-0.33 6.66 -0.66 7.32 -1 8 C-1.04241723 5.66705225 -1.04092937 3.33297433 -1 1 C-0.67 0.67 -0.34 0.34 0 0 Z " fill="#C6C889" transform="translate(423,456)"/>
<path d="M0 0 C0.33 0 0.66 0 1 0 C1.33951619 1.56116819 1.67132544 3.12401338 2 4.6875 C2.185625 5.55761719 2.37125 6.42773438 2.5625 7.32421875 C2.98972047 9.93712964 3.07616201 12.35813038 3 15 C2.34 15 1.68 15 1 15 C-0.09506492 11.71480525 -0.09960608 9.26336585 -0.0625 5.8125 C-0.05347656 4.72582031 -0.04445313 3.63914062 -0.03515625 2.51953125 C-0.02355469 1.68808594 -0.01195312 0.85664063 0 0 Z " fill="#CFB97C" transform="translate(363,297)"/>
<path d="M0 0 C0.66 0.33 1.32 0.66 2 1 C-0.05803488 4.60156104 -2.24535883 7.88992126 -5 11 C-5.66 11 -6.32 11 -7 11 C-6.625 9.0625 -6.625 9.0625 -6 7 C-5.34 6.67 -4.68 6.34 -4 6 C-2.96986723 4.35178756 -1.96885372 2.68496298 -1 1 C-0.67 0.67 -0.34 0.34 0 0 Z " fill="#D5D7B7" transform="translate(390,217)"/>
<path d="M0 0 C0.33 0 0.66 0 1 0 C1 3.96 1 7.92 1 12 C-0.32 11.34 -1.64 10.68 -3 10 C-2.01 6.7 -1.02 3.4 0 0 Z " fill="#CFD4BB" transform="translate(493,432)"/>
<path d="M0 0 C0.66 0.99 1.32 1.98 2 3 C1.67 3.66 1.34 4.32 1 5 C-2.63 4.67 -6.26 4.34 -10 4 C-6.71536341 1.81024227 -3.79303725 1.00193437 0 0 Z " fill="#793D1C" transform="translate(430,368)"/>
<path d="M0 0 C2.03833424 1.2739589 4.03852126 2.61061923 6 4 C6 4.66 6 5.32 6 6 C8.31 6.66 10.62 7.32 13 8 C10.39417629 8.93065133 9.35801776 9.14917407 6.75 8.0625 C5.88375 7.5365625 5.88375 7.5365625 5 7 C5 6.34 5 5.68 5 5 C3.68 5 2.36 5 1 5 C0.67 3.35 0.34 1.7 0 0 Z " fill="#BDAE8F" transform="translate(383,322)"/>
<path d="M0 0 C0.99 0 1.98 0 3 0 C3 5.28 3 10.56 3 16 C2.67 16 2.34 16 2 16 C2 11.71 2 7.42 2 3 C1.01 3.33 0.02 3.66 -1 4 C-0.67 2.68 -0.34 1.36 0 0 Z " fill="#9C7844" transform="translate(483,450)"/>
<path d="M0 0 C3.48330216 0.64505596 6.09432866 1.98217268 9 4 C9 4.66 9 5.32 9 6 C7.35 6 5.7 6 4 6 C4 5.34 4 4.68 4 4 C3.01 3.67 2.02 3.34 1 3 C0.67 2.01 0.34 1.02 0 0 Z " fill="#BFBD7E" transform="translate(381,455)"/>
<path d="M0 0 C0.66 0.33 1.32 0.66 2 1 C2.625 4.0625 2.625 4.0625 3 7 C2.01 7.33 1.02 7.66 0 8 C-2 5 -2 5 -1.6875 2.875 C-1 1 -1 1 0 0 Z " fill="#713F2E" transform="translate(454,230)"/>
<path d="M0 0 C3.36179774 1.44077046 5.59156268 3.24750021 8 6 C8 6.66 8 7.32 8 8 C4.63820226 6.55922954 2.40843732 4.75249979 0 2 C0 1.34 0 0.68 0 0 Z " fill="#C4C58B" transform="translate(371,424)"/>
<path d="M0 0 C2.25 0.25 2.25 0.25 4 1 C3.01 1.495 3.01 1.495 2 2 C0.9590934 3.64142963 -0.04504326 5.30712215 -1 7 C-1.33 6.34 -1.66 5.68 -2 5 C-2.66 4.67 -3.32 4.34 -4 4 C-2.25 1.9375 -2.25 1.9375 0 0 Z " fill="#644026" transform="translate(459,225)"/>
<path d="M0 0 C2.01822917 0.06510417 4.03645833 0.13020833 6.0546875 0.1953125 C5.4359375 0.6284375 4.8171875 1.0615625 4.1796875 1.5078125 C1.834963 3.19271733 1.834963 3.19271733 0.0546875 6.1953125 C-0.2753125 5.2053125 -0.6053125 4.2153125 -0.9453125 3.1953125 C-1.9353125 2.8653125 -2.9253125 2.5353125 -3.9453125 2.1953125 C-1.9453125 0.1953125 -1.9453125 0.1953125 0 0 Z " fill="#703B24" transform="translate(487.9453125,217.8046875)"/>
<path d="M0 0 C4.46839215 -0.21278058 7.82262526 0.40861915 12 2 C12 2.66 12 3.32 12 4 C10.1858073 3.71905418 8.37364999 3.42493567 6.5625 3.125 C5.04849609 2.88136719 5.04849609 2.88136719 3.50390625 2.6328125 C2.67761719 2.42398438 1.85132813 2.21515625 1 2 C0.67 1.34 0.34 0.68 0 0 Z " fill="#C9C790" transform="translate(408,64)"/>
<path d="M0 0 C-0.625 1.9375 -0.625 1.9375 -2 4 C-5.125 4.75 -5.125 4.75 -8 5 C-7.67 3.68 -7.34 2.36 -7 1 C-2.25 0 -2.25 0 0 0 Z " fill="#B19F65" transform="translate(495,444)"/>
<path d="M0 0 C0.66 0 1.32 0 2 0 C1.75 1.875 1.75 1.875 1 4 C-1.58152302 5.72101535 -2.84918025 6 -6 6 C-6 5.34 -6 4.68 -6 4 C-5.01 3.67 -4.02 3.34 -3 3 C-2.484375 2.484375 -1.96875 1.96875 -1.4375 1.4375 C-0.963125 0.963125 -0.48875 0.48875 0 0 Z " fill="#CEC6A1" transform="translate(462,322)"/>
<path d="M0 0 C0.66 0.33 1.32 0.66 2 1 C-0.36551942 3.73902249 -2.54857221 4.93170092 -6 6 C-8.8125 6.125 -8.8125 6.125 -11 6 C-10.484375 5.7525 -9.96875 5.505 -9.4375 5.25 C-8.0182019 4.52215482 -6.61168124 3.76562498 -5.24609375 2.94140625 C-3.52951812 1.90572701 -1.76622649 0.94852904 0 0 Z " fill="#977240" transform="translate(461,320)"/>
<path d="M0 0 C0.66 0.33 1.32 0.66 2 1 C1.690625 1.53625 1.38125 2.0725 1.0625 2.625 C-0.17827439 5.3984957 -0.5909675 8.00042837 -1 11 C-1.66 11 -2.32 11 -3 11 C-2.25 3.375 -2.25 3.375 0 0 Z " fill="#DBCE95" transform="translate(364,292)"/>
<path d="M0 0 C-0.33 0.66 -0.66 1.32 -1 2 C-2.32 2 -3.64 2 -5 2 C-5 2.66 -5 3.32 -5 4 C-6.65 4 -8.3 4 -10 4 C-10 3.34 -10 2.68 -10 2 C-6.5980513 -0.09350689 -3.94727588 -0.17942163 0 0 Z " fill="#D5C076" transform="translate(374,264)"/>
<path d="M0 0 C0.8125 1.6875 0.8125 1.6875 1 4 C-1.1613627 6.51185394 -3.01962439 8.50981219 -6 10 C-4.34832443 6.4213696 -2.21713508 3.25179812 0 0 Z " fill="#DDDBC3" transform="translate(305,69)"/>
<path d="M0 0 C3.46941546 0.45822468 6.67395049 0.89131683 10 2 C10 2.66 10 3.32 10 4 C6.62294375 3.46274105 3.303314 2.88935377 0 2 C0 1.34 0 0.68 0 0 Z " fill="#CCCA97" transform="translate(422,67)"/>
<path d="M0 0 C-0.33 0.66 -0.66 1.32 -1 2 C-3.28515625 2.6328125 -3.28515625 2.6328125 -6.0625 3.125 C-6.98160156 3.29257812 -7.90070313 3.46015625 -8.84765625 3.6328125 C-9.91306641 3.81457031 -9.91306641 3.81457031 -11 4 C-11 3.34 -11 2.68 -11 2 C-7.36576791 -0.32590854 -4.22911669 -0.16265833 0 0 Z " fill="#D4CC84" transform="translate(462,466)"/>
<path d="M0 0 C2 2 2 2 2 6 C0.68 6 -0.64 6 -2 6 C-2 5.34 -2 4.68 -2 4 C-2.66 4 -3.32 4 -4 4 C-3 2 -3 2 0 0 Z " fill="#D4D2BC" transform="translate(468,449)"/>
<path d="M0 0 C1.875 0.3125 1.875 0.3125 4 1 C6 4 6 4 6 7 C4 7 4 7 2.4375 5.75 C0.85466889 3.82307517 0.4193175 2.43204149 0 0 Z " fill="#C5C38B" transform="translate(365,406)"/>
<path d="M0 0 C0.66 0.66 1.32 1.32 2 2 C1.34 2 0.68 2 0 2 C-0.66 3.32 -1.32 4.64 -2 6 C-2.99 5.67 -3.98 5.34 -5 5 C-4.67 3.68 -4.34 2.36 -4 1 C-2.125 0.375 -2.125 0.375 0 0 Z " fill="#D8D6C8" transform="translate(441,266)"/>
<path d="M0 0 C0.66 0.66 1.32 1.32 2 2 C1.195625 2.763125 0.39125 3.52625 -0.4375 4.3125 C-3.16799024 6.79430898 -3.16799024 6.79430898 -4 10 C-4.66 10 -5.32 10 -6 10 C-4.6302836 6.00499382 -2.74277578 3.19990508 0 0 Z " fill="#704F32" transform="translate(333,259)"/>
<path d="M0 0 C0 0.66 0 1.32 0 2 C-1.2065625 2.433125 -1.2065625 2.433125 -2.4375 2.875 C-5.1326468 3.73262568 -5.1326468 3.73262568 -6 6 C-6.33 4.68 -6.66 3.36 -7 2 C-4.35261084 0.5393715 -3.10551666 0 0 0 Z " fill="#CFBF75" transform="translate(471,244)"/>
<path d="M0 0 C1.98 0 3.96 0 6 0 C6.66 1.32 7.32 2.64 8 4 C3.545 3.01 3.545 3.01 -1 2 C-0.67 1.34 -0.34 0.68 0 0 Z " fill="#D7D8B6" transform="translate(417,204)"/>
<path d="M0 0 C0.8971875 0.309375 0.8971875 0.309375 1.8125 0.625 C0.52725739 1.48880259 -0.76592419 2.34080369 -2.0625 3.1875 C-2.78179687 3.66316406 -3.50109375 4.13882812 -4.2421875 4.62890625 C-4.88414062 4.95761719 -5.52609375 5.28632813 -6.1875 5.625 C-6.8475 5.295 -7.5075 4.965 -8.1875 4.625 C-3.2421875 -0.55580357 -3.2421875 -0.55580357 0 0 Z " fill="#A18456" transform="translate(470.1875,316.375)"/>
<path d="M0 0 C2.97 0.495 2.97 0.495 6 1 C5.38125 1.28875 4.7625 1.5775 4.125 1.875 C1.86674235 2.93720042 1.86674235 2.93720042 0 5 C-0.99 5 -1.98 5 -3 5 C-2.67 4.01 -2.34 3.02 -2 2 C-1.34 2 -0.68 2 0 2 C0 1.34 0 0.68 0 0 Z " fill="#64382B" transform="translate(438,229)"/>
<path d="M0 0 C1.0725 0.103125 2.145 0.20625 3.25 0.3125 C3.25 0.6425 3.25 0.9725 3.25 1.3125 C1.826875 1.43625 1.826875 1.43625 0.375 1.5625 C-2.85461791 1.96324923 -2.85461791 1.96324923 -4.125 4.375 C-4.33125 5.014375 -4.5375 5.65375 -4.75 6.3125 C-5.74 5.9825 -6.73 5.6525 -7.75 5.3125 C-5.36605526 1.49818842 -4.61542062 0.38461838 0 0 Z " fill="#7A5A45" transform="translate(396.75,345.6875)"/>
<path d="M0 0 C0.66 0.33 1.32 0.66 2 1 C1.25 6.75 1.25 6.75 -1 9 C-1.625 5.625 -1.625 5.625 -2 2 C-1.34 1.34 -0.68 0.68 0 0 Z " fill="#CEC0AA" transform="translate(483,345)"/>
<path d="M0 0 C1.84765625 0.33984375 1.84765625 0.33984375 4.0625 0.9375 C5.16271484 1.22947266 5.16271484 1.22947266 6.28515625 1.52734375 C7.13400391 1.76130859 7.13400391 1.76130859 8 2 C8 1.34 8 0.68 8 0 C8.99 0.33 9.98 0.66 11 1 C11 1.66 11 2.32 11 3 C9.5629191 3.05422947 8.12524538 3.09289723 6.6875 3.125 C5.88699219 3.14820313 5.08648437 3.17140625 4.26171875 3.1953125 C2 3 2 3 -1 1 C-0.67 0.67 -0.34 0.34 0 0 Z " fill="#713B1D" transform="translate(399,328)"/>
<path d="M0 0 C0.66 0.33 1.32 0.66 2 1 C0.35 2.65 -1.3 4.3 -3 6 C-3.99 5.67 -4.98 5.34 -6 5 C-5.67 4.34 -5.34 3.68 -5 3 C-4.34 3 -3.68 3 -3 3 C-3 2.34 -3 1.68 -3 1 C-2.01 0.67 -1.02 0.34 0 0 Z " fill="#89541E" transform="translate(350,272)"/>
<path d="M0 0 C1.5 1.25 1.5 1.25 3 3 C3 4.32 3 5.64 3 7 C3.66 7 4.32 7 5 7 C5 7.66 5 8.32 5 9 C3.68 8.67 2.36 8.34 1 8 C0.67 5.36 0.34 2.72 0 0 Z " fill="#734620" transform="translate(327,269)"/>
<path d="M0 0 C1.65 0 3.3 0 5 0 C5 0.66 5 1.32 5 2 C4.34 2 3.68 2 3 2 C2.67 4.64 2.34 7.28 2 10 C1.67 10 1.34 10 1 10 C1.33 7.36 1.66 4.72 2 2 C1.34 2 0.68 2 0 2 C0 1.34 0 0.68 0 0 Z " fill="#704030" transform="translate(384,248)"/>
<path d="M0 0 C0.33 0 0.66 0 1 0 C1 2.97 1 5.94 1 9 C-1.475 8.01 -1.475 8.01 -4 7 C-3.525625 6.401875 -3.05125 5.80375 -2.5625 5.1875 C-0.83534256 2.99617076 -0.83534256 2.99617076 0 0 Z " fill="#AB925A" transform="translate(463,455)"/>
<path d="M0 0 C0.66 0.33 1.32 0.66 2 1 C4.09821215 0.60061233 4.09821215 0.60061233 6 0 C6 0.66 6 1.32 6 2 C5.01 2 4.02 2 3 2 C2.67 3.32 2.34 4.64 2 6 C2 5.34 2 4.68 2 4 C0.68 3.34 -0.64 2.68 -2 2 C-1.34 1.34 -0.68 0.68 0 0 Z " fill="#C7BC78" transform="translate(486,447)"/>
<path d="M0 0 C4.455 0.99 4.455 0.99 9 2 C6 4 6 4 3.3125 3.625 C2.549375 3.41875 1.78625 3.2125 1 3 C0.67 2.01 0.34 1.02 0 0 Z " fill="#724C39" transform="translate(400,347)"/>
<path d="M0 0 C1.32 0.33 2.64 0.66 4 1 C2.35 2.98 0.7 4.96 -1 7 C-1.66 6.67 -2.32 6.34 -3 6 C-2.01 4.02 -1.02 2.04 0 0 Z " fill="#D2CBAC" transform="translate(484,304)"/>
<path d="M0 0 C3 2 3 2 3.51171875 4.1640625 C3.56972656 4.97617187 3.62773437 5.78828125 3.6875 6.625 C3.75324219 7.44226563 3.81898438 8.25953125 3.88671875 9.1015625 C3.92410156 9.72804688 3.96148437 10.35453125 4 11 C1.6870518 8.6870518 1.50419025 7.52095125 0.875 4.375 C0.70742188 3.55773437 0.53984375 2.74046875 0.3671875 1.8984375 C0.24601562 1.27195312 0.12484375 0.64546875 0 0 Z " fill="#C5B080" transform="translate(470,255)"/>
<path d="M0 0 C1.65 0 3.3 0 5 0 C5.33 0.99 5.66 1.98 6 3 C4.02 3.33 2.04 3.66 0 4 C0 2.68 0 1.36 0 0 Z " fill="#6E411F" transform="translate(395,454)"/>
<path d="M0 0 C-2.55991624 2.01136276 -5.04590299 3.62845496 -8 5 C-7.625 3.0625 -7.625 3.0625 -7 1 C-4.53721199 -0.231394 -2.7204945 -0.07159196 0 0 Z " fill="#82491C" transform="translate(360,267)"/>
<path d="M0 0 C0.33 0 0.66 0 1 0 C1.1875 2.875 1.1875 2.875 1 6 C0.01 6.66 -0.98 7.32 -2 8 C-2.99 7.67 -3.98 7.34 -5 7 C-4.0409375 6.1028125 -4.0409375 6.1028125 -3.0625 5.1875 C-0.79689611 3.09189663 -0.79689611 3.09189663 0 0 Z " fill="#62483A" transform="translate(443,258)"/>
<path d="M0 0 C0.33 0.99 0.66 1.98 1 3 C-0.32 4.32 -1.64 5.64 -3 7 C-3.33 5.68 -3.66 4.36 -4 3 C-2.68 2.67 -1.36 2.34 0 2 C0 1.34 0 0.68 0 0 Z " fill="#522F23" transform="translate(442,258)"/>
<path d="M0 0 C0.99 0.495 0.99 0.495 2 1 C1.01 1.495 1.01 1.495 0 2 C0 1.34 0 0.68 0 0 Z M-2 2 C-1.01 2.33 -0.02 2.66 1 3 C0.34 4.65 -0.32 6.3 -1 8 C-1.66 7.34 -2.32 6.68 -3 6 C-2.625 3.875 -2.625 3.875 -2 2 Z " fill="#522B1C" transform="translate(396,240)"/>
<path d="M0 0 C0.99 0.33 1.98 0.66 3 1 C1.35 2.98 -0.3 4.96 -2 7 C-2.33 6.01 -2.66 5.02 -3 4 C-1.5625 1.8125 -1.5625 1.8125 0 0 Z " fill="#C5C290" transform="translate(310,65)"/>
<path d="M0 0 C1.65 1.32 3.3 2.64 5 4 C4.67 5.32 4.34 6.64 4 8 C2 6.25 2 6.25 0 4 C0 2.68 0 1.36 0 0 Z " fill="#D1CDAE" transform="translate(448,56)"/>
</svg>
